<svg xmlns="http://www.w3.org/2000/svg" width="758" height="26" fill="none"><path fill="#2DE8E8" d="M0 0h757.482v25.28H0z"/><path fill="#000" d="m38.342 6.852-1.358 4.292-4.127 1.8 4.292 1.357 1.8 4.127 1.357-4.292 4.127-1.8-4.292-1.357-1.8-4.127ZM61.466 4.24h3.936c2.76 0 3.936 1.488 3.264 4.152l-.024.12c-.576 2.376-2.04 3.624-3.384 3.84l-.048.192c1.32.168 2.352 1.656 1.752 4.056l-.048.24c-.672 2.664-2.736 4.2-5.616 4.2H57.29l4.176-16.8Zm2.256 2.496L62.618 11.2h1.008c1.008 0 1.584-.48 1.872-1.632l.288-1.176c.288-1.128.048-1.656-.96-1.656h-1.104Zm-1.728 6.984-1.2 4.8h1.104c1.08 0 1.704-.576 1.992-1.752l.36-1.416c.288-1.152-.072-1.632-1.152-1.632h-1.104ZM71.895 4.24h2.88l-3.576 14.304h3.192l-.624 2.496h-6.072l4.2-16.8ZM78.36 8.344C79.058 5.56 80.978 4 83.69 4c2.712 0 3.912 1.608 3.24 4.344l-2.136 8.568c-.696 2.76-2.688 4.368-5.424 4.368-2.688 0-3.84-1.56-3.144-4.368l2.136-8.568Zm2.929-.192-2.232 8.976c-.264 1.056.072 1.656.936 1.656.912 0 1.608-.624 1.872-1.656l2.232-8.976c.264-1.08-.072-1.656-.936-1.656-.912 0-1.608.624-1.872 1.656ZM91.835 8.152l-2.232 8.976c-.264 1.056.072 1.656.96 1.656s1.584-.624 1.848-1.656l.888-3.624h2.904l-.864 3.408c-.672 2.76-2.688 4.368-5.424 4.368-2.688 0-3.84-1.584-3.144-4.368l2.136-8.568C89.603 5.56 91.523 4 94.235 4c2.736 0 3.936 1.608 3.264 4.344l-.864 3.432H93.73l.912-3.624c.288-1.08-.072-1.632-.96-1.632s-1.584.6-1.848 1.632ZM103.437 4.24l-1.8 7.152h.36l3.768-7.152h3.072l-4.776 8.4.888 8.376h-3.048l-.504-7.128h-.384l-1.776 7.128h-2.88l4.2-16.776h2.88ZM112.317 8.152l-2.232 8.976c-.264 1.056.072 1.656.96 1.656s1.584-.624 1.848-1.656l.888-3.624h2.904l-.864 3.408c-.672 2.76-2.688 4.368-5.424 4.368-2.688 0-3.84-1.584-3.144-4.368l2.136-8.568C110.085 5.56 112.005 4 114.717 4c2.736 0 3.936 1.608 3.264 4.344l-.864 3.432h-2.904l.912-3.624c.288-1.08-.072-1.632-.96-1.632s-1.584.6-1.848 1.632ZM126.367 4.24h2.88l-4.2 16.8h-2.88l1.848-7.368h-2.472l-1.848 7.368h-2.88l4.2-16.8h2.88l-1.728 6.936h2.472l1.728-6.936ZM133.127 4.24h4.512l-2.016 16.8h-2.856l.552-4.512h-2.04l-1.68 4.512h-2.904l6.432-16.8Zm-.912 9.792h1.416l.624-4.968h-.192l-1.848 4.968ZM141.498 4.24h2.88l-4.2 16.8h-2.88l4.2-16.8ZM152.155 4.24h2.88l-4.2 16.8h-3.216V9.136h-.168l-2.352 11.904h-2.88l4.176-16.8h3.264l.024 11.952h.168l2.304-11.952ZM169.22 10.264h-2.856l.528-2.112c.264-1.08-.072-1.656-.912-1.656-.864 0-1.56.648-1.824 1.656l-.24 1.032c-.288 1.152-.072 1.632 1.632 2.448l.768.36c1.68.792 2.04 1.968 1.416 4.512l-.12.408c-.672 2.76-2.664 4.368-5.4 4.368-2.712 0-3.84-1.56-3.144-4.368l.456-1.896h2.88l-.528 2.112c-.264 1.056.096 1.656.96 1.656.888 0 1.608-.624 1.848-1.656l.288-1.104c.288-1.152.048-1.608-1.56-2.4l-.888-.408c-1.632-.792-1.992-2.016-1.368-4.56l.12-.456c.672-2.64 2.568-4.2 5.232-4.2 2.712 0 3.888 1.608 3.192 4.344l-.48 1.92ZM172.806 4.24h4.008c2.808 0 3.888 1.824 2.904 5.712l-.048.192c-.936 3.792-2.736 5.28-5.664 5.28h-1.128l-1.392 5.616h-2.88l4.2-16.8Zm2.256 2.496-1.56 6.192h1.128c1.032 0 1.632-.696 1.944-1.92l.576-2.28c.336-1.392.096-1.992-.936-1.992h-1.152ZM181.944 8.344C182.64 5.56 184.56 4 187.272 4s3.912 1.608 3.24 4.344l-2.136 8.568c-.696 2.76-2.688 4.368-5.424 4.368-2.688 0-3.84-1.56-3.144-4.368l2.136-8.568Zm2.928-.192-2.232 8.976c-.264 1.056.072 1.656.936 1.656.912 0 1.608-.624 1.872-1.656l2.232-8.976c.264-1.08-.072-1.656-.936-1.656-.912 0-1.608.624-1.872 1.656ZM193.57 4.24h4.032c2.712 0 3.936 1.56 3.192 4.512l-.048.264c-.624 2.448-2.208 3.864-3.504 4.056l-.048.192c1.2.192 2.064 1.704 1.464 4.08l-.072.288c-.384 1.512-.6 2.496-.624 3.408h-2.88c.024-.984.288-2.136.624-3.456l.384-1.512c.264-1.104-.048-1.656-1.008-1.656h-1.176l-1.656 6.624h-2.88l4.2-16.8Zm2.256 2.52-1.296 5.16h1.128c1.008 0 1.632-.696 1.92-1.776l.408-1.656c.288-1.152-.024-1.728-1.008-1.728h-1.152ZM211.656 4.24l-.624 2.496h-2.592l-3.576 14.304h-2.88l3.576-14.304h-2.616l.624-2.496h8.088ZM220.286 10.264h-2.856l.528-2.112c.264-1.08-.072-1.656-.912-1.656-.864 0-1.56.648-1.824 1.656l-.24 1.032c-.288 1.152-.072 1.632 1.632 2.448l.768.36c1.68.792 2.04 1.968 1.416 4.512l-.12.408c-.672 2.76-2.664 4.368-5.4 4.368-2.712 0-3.84-1.56-3.144-4.368l.456-1.896h2.88l-.528 2.112c-.264 1.056.096 1.656.96 1.656.888 0 1.608-.624 1.848-1.656l.288-1.104c.288-1.152.048-1.608-1.56-2.4l-.888-.408c-1.632-.792-1.992-2.016-1.368-4.56l.12-.456c.672-2.64 2.568-4.2 5.232-4.2 2.712 0 3.888 1.608 3.192 4.344l-.48 1.92ZM231.715 4.24l-.408 6.84h.216l3-6.84h3.024l-3.96 8.232-.144 8.568h-3.024l.408-7.224h-.192l-3.192 7.224h-3.024l4.128-8.568.168-8.232h3ZM239.292 4.24h4.032c2.712 0 3.936 1.56 3.192 4.512l-.048.264c-.624 2.448-2.208 3.864-3.504 4.056l-.048.192c1.2.192 2.064 1.704 1.464 4.08l-.072.288c-.384 1.512-.6 2.496-.624 3.408h-2.88c.024-.984.288-2.136.624-3.456l.384-1.512c.264-1.104-.048-1.656-1.008-1.656h-1.176l-1.656 6.624h-2.88l4.2-16.8Zm2.256 2.52-1.296 5.16h1.128c1.008 0 1.632-.696 1.92-1.776l.408-1.656c.288-1.152-.024-1.728-1.008-1.728h-1.152ZM265.072 6.852l-1.358 4.292-4.126 1.8 4.292 1.357 1.799 4.127 1.358-4.292 4.127-1.8-4.293-1.357-1.799-4.127ZM288.197 4.24h3.936c2.76 0 3.936 1.488 3.264 4.152l-.024.12c-.576 2.376-2.04 3.624-3.384 3.84l-.048.192c1.32.168 2.352 1.656 1.752 4.056l-.048.24c-.672 2.664-2.736 4.2-5.616 4.2h-4.008l4.176-16.8Zm2.256 2.496-1.104 4.464h1.008c1.008 0 1.584-.48 1.872-1.632l.288-1.176c.288-1.128.048-1.656-.96-1.656h-1.104Zm-1.728 6.984-1.2 4.8h1.104c1.08 0 1.704-.576 1.992-1.752l.36-1.416c.288-1.152-.072-1.632-1.152-1.632h-1.104ZM298.625 4.24h2.88l-3.576 14.304h3.192l-.624 2.496h-6.072l4.2-16.8ZM305.091 8.344C305.787 5.56 307.707 4 310.419 4s3.912 1.608 3.24 4.344l-2.136 8.568c-.696 2.76-2.688 4.368-5.424 4.368-2.688 0-3.84-1.56-3.144-4.368l2.136-8.568Zm2.928-.192-2.232 8.976c-.264 1.056.072 1.656.936 1.656.912 0 1.608-.624 1.872-1.656l2.232-8.976c.264-1.08-.072-1.656-.936-1.656-.912 0-1.608.624-1.872 1.656ZM318.565 8.152l-2.232 8.976c-.264 1.056.072 1.656.96 1.656s1.584-.624 1.848-1.656l.888-3.624h2.904l-.864 3.408c-.672 2.76-2.688 4.368-5.424 4.368-2.688 0-3.84-1.584-3.144-4.368l2.136-8.568C316.333 5.56 318.253 4 320.965 4c2.736 0 3.936 1.608 3.264 4.344l-.864 3.432h-2.904l.912-3.624c.288-1.08-.072-1.632-.96-1.632s-1.584.6-1.848 1.632ZM330.167 4.24l-1.8 7.152h.36l3.768-7.152h3.072l-4.776 8.4.888 8.376h-3.048l-.504-7.128h-.384l-1.776 7.128h-2.88l4.2-16.776h2.88ZM339.048 8.152l-2.232 8.976c-.264 1.056.072 1.656.96 1.656s1.584-.624 1.848-1.656l.888-3.624h2.904l-.864 3.408c-.672 2.76-2.688 4.368-5.424 4.368-2.688 0-3.84-1.584-3.144-4.368l2.136-8.568C336.816 5.56 338.736 4 341.448 4c2.736 0 3.936 1.608 3.264 4.344l-.864 3.432h-2.904l.912-3.624c.288-1.08-.072-1.632-.96-1.632s-1.584.6-1.848 1.632ZM353.098 4.24h2.88l-4.2 16.8h-2.88l1.848-7.368h-2.472l-1.848 7.368h-2.88l4.2-16.8h2.88l-1.728 6.936h2.472l1.728-6.936ZM359.858 4.24h4.512l-2.016 16.8h-2.856l.552-4.512h-2.04l-1.68 4.512h-2.904l6.432-16.8Zm-.912 9.792h1.416l.624-4.968h-.192l-1.848 4.968ZM368.229 4.24h2.88l-4.2 16.8h-2.88l4.2-16.8ZM378.885 4.24h2.88l-4.2 16.8h-3.216V9.136h-.168l-2.352 11.904h-2.88l4.176-16.8h3.264l.024 11.952h.168l2.304-11.952ZM395.951 10.264h-2.856l.528-2.112c.264-1.08-.072-1.656-.912-1.656-.864 0-1.56.648-1.824 1.656l-.24 1.032c-.288 1.152-.072 1.632 1.632 2.448l.768.36c1.68.792 2.04 1.968 1.416 4.512l-.12.408c-.672 2.76-2.664 4.368-5.4 4.368-2.712 0-3.84-1.56-3.144-4.368l.456-1.896h2.88l-.528 2.112c-.264 1.056.096 1.656.96 1.656.888 0 1.608-.624 1.848-1.656l.288-1.104c.288-1.152.048-1.608-1.56-2.4l-.888-.408c-1.632-.792-1.992-2.016-1.368-4.56l.12-.456c.672-2.64 2.568-4.2 5.232-4.2 2.712 0 3.888 1.608 3.192 4.344l-.48 1.92ZM399.537 4.24h4.008c2.808 0 3.888 1.824 2.904 5.712l-.048.192c-.936 3.792-2.736 5.28-5.664 5.28h-1.128l-1.392 5.616h-2.88l4.2-16.8Zm2.256 2.496-1.56 6.192h1.128c1.032 0 1.632-.696 1.944-1.92l.576-2.28c.336-1.392.096-1.992-.936-1.992h-1.152ZM408.675 8.344C409.371 5.56 411.291 4 414.003 4s3.912 1.608 3.24 4.344l-2.136 8.568c-.696 2.76-2.688 4.368-5.424 4.368-2.688 0-3.84-1.56-3.144-4.368l2.136-8.568Zm2.928-.192-2.232 8.976c-.264 1.056.072 1.656.936 1.656.912 0 1.608-.624 1.872-1.656l2.232-8.976c.264-1.08-.072-1.656-.936-1.656-.912 0-1.608.624-1.872 1.656ZM420.301 4.24h4.032c2.712 0 3.936 1.56 3.192 4.512l-.048.264c-.624 2.448-2.208 3.864-3.504 4.056l-.048.192c1.2.192 2.064 1.704 1.464 4.08l-.072.288c-.384 1.512-.6 2.496-.624 3.408h-2.88c.024-.984.288-2.136.624-3.456l.384-1.512c.264-1.104-.048-1.656-1.008-1.656h-1.176l-1.656 6.624h-2.88l4.2-16.8Zm2.256 2.52-1.296 5.16h1.128c1.008 0 1.632-.696 1.92-1.776l.408-1.656c.288-1.152-.024-1.728-1.008-1.728h-1.152ZM438.386 4.24l-.624 2.496h-2.592l-3.576 14.304h-2.88l3.576-14.304h-2.616l.624-2.496h8.088ZM447.016 10.264h-2.855l.528-2.112c.264-1.08-.072-1.656-.912-1.656-.864 0-1.561.648-1.825 1.656l-.24 1.032c-.288 1.152-.072 1.632 1.632 2.448l.769.36c1.68.792 2.04 1.968 1.416 4.512l-.12.408c-.672 2.76-2.665 4.368-5.401 4.368-2.712 0-3.839-1.56-3.143-4.368l.455-1.896h2.881l-.528 2.112c-.264 1.056.096 1.656.96 1.656.888 0 1.607-.624 1.847-1.656l.288-1.104c.288-1.152.048-1.608-1.56-2.4l-.888-.408c-1.632-.792-1.992-2.016-1.368-4.56l.12-.456c.672-2.64 2.569-4.2 5.233-4.2 2.712 0 3.888 1.608 3.192 4.344l-.481 1.92ZM458.446 4.24l-.408 6.84h.216l3-6.84h3.024l-3.96 8.232-.144 8.568h-3.024l.408-7.224h-.192l-3.192 7.224h-3.024l4.128-8.568.168-8.232h3ZM466.022 4.24h4.032c2.712 0 3.936 1.56 3.192 4.512l-.048.264c-.624 2.448-2.208 3.864-3.504 4.056l-.048.192c1.2.192 2.064 1.704 1.464 4.08l-.072.288c-.384 1.512-.6 2.496-.624 3.408h-2.88c.024-.984.288-2.136.624-3.456l.384-1.512c.264-1.104-.048-1.656-1.008-1.656h-1.176l-1.656 6.624h-2.88l4.2-16.8Zm2.256 2.52-1.296 5.16h1.128c1.008 0 1.632-.696 1.92-1.776l.408-1.656c.288-1.152-.024-1.728-1.008-1.728h-1.152ZM491.803 6.852l-1.358 4.292-4.127 1.8 4.292 1.357 1.799 4.127 1.358-4.292 4.127-1.8-4.292-1.357-1.799-4.127ZM514.927 4.24h3.936c2.76 0 3.936 1.488 3.264 4.152l-.024.12c-.576 2.376-2.04 3.624-3.384 3.84l-.048.192c1.32.168 2.352 1.656 1.752 4.056l-.048.24c-.672 2.664-2.736 4.2-5.616 4.2h-4.008l4.176-16.8Zm2.256 2.496-1.104 4.464h1.008c1.008 0 1.584-.48 1.872-1.632l.288-1.176c.288-1.128.048-1.656-.96-1.656h-1.104Zm-1.728 6.984-1.2 4.8h1.104c1.08 0 1.704-.576 1.992-1.752l.36-1.416c.288-1.152-.072-1.632-1.152-1.632h-1.104ZM525.356 4.24h2.88l-3.576 14.304h3.192l-.624 2.496h-6.072l4.2-16.8ZM531.822 8.344C532.518 5.56 534.438 4 537.15 4s3.912 1.608 3.24 4.344l-2.136 8.568c-.696 2.76-2.688 4.368-5.424 4.368-2.688 0-3.84-1.56-3.144-4.368l2.136-8.568Zm2.928-.192-2.232 8.976c-.264 1.056.072 1.656.936 1.656.912 0 1.608-.624 1.872-1.656l2.232-8.976c.264-1.08-.072-1.656-.936-1.656-.912 0-1.608.624-1.872 1.656ZM545.296 8.152l-2.232 8.976c-.264 1.056.072 1.656.96 1.656s1.584-.624 1.848-1.656l.888-3.624h2.904l-.864 3.408c-.672 2.76-2.688 4.368-5.424 4.368-2.688 0-3.84-1.584-3.144-4.368l2.136-8.568C543.064 5.56 544.984 4 547.696 4c2.736 0 3.936 1.608 3.264 4.344l-.864 3.432h-2.904l.912-3.624c.288-1.08-.072-1.632-.96-1.632s-1.584.6-1.848 1.632ZM556.898 4.24l-1.8 7.152h.36l3.768-7.152h3.072l-4.776 8.4.888 8.376h-3.048l-.504-7.128h-.384l-1.776 7.128h-2.88l4.2-16.776h2.88ZM565.778 8.152l-2.232 8.976c-.264 1.056.072 1.656.96 1.656s1.584-.624 1.848-1.656l.888-3.624h2.904l-.864 3.408c-.672 2.76-2.688 4.368-5.424 4.368-2.688 0-3.84-1.584-3.144-4.368l2.136-8.568C563.546 5.56 565.466 4 568.178 4c2.736 0 3.936 1.608 3.264 4.344l-.864 3.432h-2.904l.912-3.624c.288-1.08-.072-1.632-.96-1.632s-1.584.6-1.848 1.632ZM579.828 4.24h2.88l-4.2 16.8h-2.88l1.848-7.368h-2.472l-1.848 7.368h-2.88l4.2-16.8h2.88l-1.728 6.936h2.472l1.728-6.936ZM586.588 4.24h4.512l-2.016 16.8h-2.856l.552-4.512h-2.04l-1.68 4.512h-2.904l6.432-16.8Zm-.912 9.792h1.416l.624-4.968h-.192l-1.848 4.968ZM594.959 4.24h2.88l-4.2 16.8h-2.88l4.2-16.8ZM605.615 4.24h2.88l-4.2 16.8h-3.216V9.136h-.168l-2.352 11.904h-2.88l4.176-16.8h3.264l.024 11.952h.168l2.304-11.952ZM622.681 10.264h-2.856l.528-2.112c.264-1.08-.072-1.656-.912-1.656-.864 0-1.56.648-1.824 1.656l-.24 1.032c-.288 1.152-.072 1.632 1.632 2.448l.768.36c1.68.792 2.04 1.968 1.416 4.512l-.12.408c-.672 2.76-2.664 4.368-5.4 4.368-2.712 0-3.84-1.56-3.144-4.368l.456-1.896h2.88l-.528 2.112c-.264 1.056.096 1.656.96 1.656.888 0 1.608-.624 1.848-1.656l.288-1.104c.288-1.152.048-1.608-1.56-2.4l-.888-.408c-1.632-.792-1.992-2.016-1.368-4.56l.12-.456c.672-2.64 2.568-4.2 5.232-4.2 2.712 0 3.888 1.608 3.192 4.344l-.48 1.92ZM626.267 4.24h4.008c2.808 0 3.888 1.824 2.904 5.712l-.048.192c-.936 3.792-2.736 5.28-5.664 5.28h-1.128l-1.392 5.616h-2.88l4.2-16.8Zm2.256 2.496-1.56 6.192h1.128c1.032 0 1.632-.696 1.944-1.92l.576-2.28c.336-1.392.096-1.992-.936-1.992h-1.152ZM635.405 8.344C636.101 5.56 638.021 4 640.733 4s3.912 1.608 3.24 4.344l-2.136 8.568c-.696 2.76-2.688 4.368-5.424 4.368-2.688 0-3.84-1.56-3.144-4.368l2.136-8.568Zm2.928-.192-2.232 8.976c-.264 1.056.072 1.656.936 1.656.912 0 1.608-.624 1.872-1.656l2.232-8.976c.264-1.08-.072-1.656-.936-1.656-.912 0-1.608.624-1.872 1.656ZM647.031 4.24h4.032c2.712 0 3.936 1.56 3.192 4.512l-.048.264c-.624 2.448-2.208 3.864-3.504 4.056l-.048.192c1.2.192 2.064 1.704 1.464 4.08l-.072.288c-.384 1.512-.6 2.496-.624 3.408h-2.88c.024-.984.288-2.136.624-3.456l.384-1.512c.264-1.104-.048-1.656-1.008-1.656h-1.176l-1.656 6.624h-2.88l4.2-16.8Zm2.256 2.52-1.296 5.16h1.128c1.008 0 1.632-.696 1.92-1.776l.408-1.656c.288-1.152-.024-1.728-1.008-1.728h-1.152ZM665.117 4.24l-.624 2.496h-2.592l-3.576 14.304h-2.88l3.576-14.304h-2.616l.624-2.496h8.088ZM673.747 10.264h-2.856l.528-2.112c.264-1.08-.072-1.656-.912-1.656-.864 0-1.56.648-1.824 1.656l-.24 1.032c-.288 1.152-.072 1.632 1.632 2.448l.768.36c1.68.792 2.04 1.968 1.416 4.512l-.12.408c-.672 2.76-2.664 4.368-5.4 4.368-2.712 0-3.84-1.56-3.144-4.368l.456-1.896h2.88l-.528 2.112c-.264 1.056.096 1.656.96 1.656.888 0 1.608-.624 1.848-1.656l.288-1.104c.288-1.152.048-1.608-1.56-2.4l-.888-.408c-1.632-.792-1.992-2.016-1.368-4.56l.12-.456c.672-2.64 2.568-4.2 5.232-4.2 2.712 0 3.888 1.608 3.192 4.344l-.48 1.92ZM685.176 4.24l-.408 6.84h.216l3-6.84h3.024l-3.96 8.232-.144 8.568h-3.024l.408-7.224h-.192l-3.192 7.224h-3.024l4.128-8.568.168-8.232h3ZM692.753 4.24h4.032c2.712 0 3.936 1.56 3.192 4.512l-.048.264c-.624 2.448-2.208 3.864-3.504 4.056l-.048.192c1.2.192 2.064 1.704 1.464 4.08l-.072.288c-.384 1.512-.6 2.496-.624 3.408h-2.88c.024-.984.288-2.136.624-3.456l.384-1.512c.264-1.104-.048-1.656-1.008-1.656h-1.176l-1.656 6.624h-2.88l4.2-16.8Zm2.256 2.52-1.296 5.16h1.128c1.008 0 1.632-.696 1.92-1.776l.408-1.656c.288-1.152-.024-1.728-1.008-1.728h-1.152ZM718.533 6.852l-1.358 4.292-4.127 1.8 4.293 1.357 1.799 4.127 1.358-4.292 4.127-1.8-4.293-1.357-1.799-4.127Z"/></svg>