<svg xmlns="http://www.w3.org/2000/svg" width="121" height="32" fill="none"><path fill="#E833EC" fill-rule="evenodd" d="m85.72 21.09-1.91-3.585H73.24c-1.688 0-3.375 1.397-3.375 3.48v5.037c0 2.083 1.688 3.48 3.375 3.48h14.917l-1.034 1.978H73.223c-3.36 0-5.763-2.598-5.763-5.459v-5.036c0-2.848 2.404-5.458 5.763-5.458h12.514l1.99 4.034 3.645-4.034h3.28l-5.747 6.21 1.687 3.15-1.448 2.743-2.23-4.39-3.74 4.179h-3.328l5.875-6.328Z" clip-rule="evenodd"/><path fill="#2DE8E8" fill-rule="evenodd" d="M115.208 15.527H98.261L97.224 17.5h17.984c1.691 0 3.383 1.395 3.383 3.475v5.028c0 2.08-1.692 3.475-3.383 3.475h-14.043l-1.436-2.698h.287c3.511 0 5.282-1.817 5.282-4.304 0-1.33-1.484-2.712-3.957-2.712h-5.33l-6.208 11.702h2.936l2.49-4.726 1.548.027 2.505 4.712h15.942c3.367 0 5.776-2.593 5.776-5.45v-5.028c-.016-2.882-2.425-5.475-5.792-5.475ZM97.814 21.87l-1.484 2.777v.014h3.654c1.532 0 2.362-.619 2.362-1.804 0-.54-.415-.987-1.548-.987h-2.984Z" clip-rule="evenodd"/><path fill="#fff" d="M11.834 5.754c.862.185 1.514.506 1.954.964.441.447.662 1.09.662 1.93v.064c0 .894-.226 1.586-.677 2.076-.452.49-1.077.833-1.877 1.03-.8.185-1.806.283-3.016.294h-.645L.31 12.096V0h9.277c1.19.011 2.139.272 2.847.784.708.512 1.061 1.237 1.061 2.174v.065c0 .708-.138 1.286-.415 1.733-.277.447-.693.78-1.247.998Zm-1.462-2.256c0-.404-.087-.692-.261-.867a1.16 1.16 0 0 0-.692-.343c-.277-.044-.677-.065-1.2-.065H3.34v2.55l3.692.033H8.22c.553 0 .958-.016 1.215-.05a1.11 1.11 0 0 0 .662-.326c.184-.186.276-.496.276-.932ZM8.726 9.692c.626 0 1.092-.022 1.4-.065a1.24 1.24 0 0 0 .738-.393c.185-.207.277-.54.277-.996 0-.457-.092-.769-.277-.965a1.17 1.17 0 0 0-.738-.376c-.307-.044-.774-.065-1.4-.065H3.34V9.66c2.226 0 3.811.011 4.754.033h.63ZM18.375 12.095h-3V0h3v12.095ZM25.137 2.81c1.077 0 2.046.208 2.908.622.862.413 1.533.991 2.016 1.733.492.73.738 1.552.738 2.468a4.34 4.34 0 0 1-.738 2.468c-.482.73-1.154 1.302-2.016 1.716-.862.413-1.83.62-2.908.62a6.762 6.762 0 0 1-2.907-.62c-.902-.425-1.626-1.003-2.17-1.733a4.104 4.104 0 0 1-.8-2.452c0-.894.267-1.722.8-2.452.544-.742 1.268-1.319 2.17-1.733a6.762 6.762 0 0 1 2.907-.636Zm0 7.57c.739 0 1.37-.235 1.893-.704.523-.469.784-1.15.784-2.043 0-.894-.261-1.591-.784-2.06-.524-.469-1.154-.703-1.893-.703a3.18 3.18 0 0 0-1.369.31c-.43.197-.784.501-1.061.916-.277.414-.416.927-.416 1.537 0 .61.139 1.106.416 1.52.277.414.63.724 1.061.932.442.196.898.294 1.37.294ZM31.34 7.682c0-.916.252-1.738.754-2.468.503-.742 1.19-1.319 2.063-1.733.872-.414 1.835-.621 2.892-.621 1.518 0 2.733.354 3.646 1.063.923.697 1.528 1.64 1.816 2.827h-3.015a2.231 2.231 0 0 0-.847-1.307c-.43-.349-.959-.523-1.585-.523-.82 0-1.472.257-1.953.768-.482.501-.723 1.166-.723 1.995 0 .49.102.947.307 1.373.205.414.502.752.892 1.014.4.25.872.375 1.415.375.646 0 1.19-.169 1.631-.506.452-.35.733-.785.846-1.308h3.015c-.103.698-.406 1.347-.908 1.946-.503.589-1.154 1.056-1.954 1.405a6.332 6.332 0 0 1-2.584.523c-1.036 0-1.99-.208-2.861-.621-.872-.425-1.564-1.003-2.077-1.733a4.243 4.243 0 0 1-.77-2.47ZM49.23 7.175l4.663 4.92h-3.57L46.2 7.845v4.25h-3V0h3v6.538l3.523-3.35h3.631L49.23 7.174Z"/><path fill="#fff" d="M52.886 7.682c0-.916.251-1.738.755-2.468.502-.742 1.19-1.319 2.062-1.733.872-.414 1.835-.621 2.892-.621 1.518 0 2.733.354 3.646 1.063.923.697 1.529 1.64 1.816 2.827h-3.015a2.238 2.238 0 0 0-.846-1.307c-.43-.349-.959-.523-1.585-.523-.82 0-1.471.257-1.953.768-.482.501-.723 1.166-.723 1.995 0 .49.102.947.307 1.373.206.414.503.752.893 1.014.4.25.872.375 1.415.375.646 0 1.19-.169 1.631-.506.452-.35.734-.785.846-1.308h3.015c-.103.698-.405 1.347-.908 1.946-.502.589-1.154 1.056-1.953 1.405a6.331 6.331 0 0 1-2.585.523c-1.036 0-1.99-.208-2.861-.621-.872-.425-1.564-1.003-2.077-1.733a4.231 4.231 0 0 1-.772-2.47ZM71.391 2.893c1.14 0 2.073.436 2.8 1.307.739.871 1.108 2.278 1.108 4.217v3.678h-3V8.466c0-.697-.046-1.286-.138-1.765a2.232 2.232 0 0 0-.6-1.21c-.318-.326-.8-.49-1.446-.49-.647 0-1.184.169-1.524.506a2.37 2.37 0 0 0-.63 1.242c-.093.48-.14 1.063-.14 1.75v3.595h-3V0h3v4.282c.78-.926 1.97-1.39 3.57-1.39ZM81.687 2.795c1.415 0 2.682.261 3.8.784 1.119.523 1.678 1.443 1.678 2.763v5.753h-2.8l-.247-1.356v-.082c-.235.5-.78.893-1.63 1.177-.842.283-1.76.424-2.755.424-.8 0-1.61-.174-2.43-.522-.82-.36-1.232-1.128-1.232-2.305 0-1.177.35-1.863 1.047-2.223a4.958 4.958 0 0 1 2.277-.54c1.57 0 2.657-.011 3.261-.033.605-.033 1-.092 1.184-.18.195-.086.298-.245.307-.473v-.18c-.01-.381-.266-.674-.769-.882-.492-.218-1.061-.326-1.707-.326-.698 0-1.293.125-1.785.375-.482.24-.723.616-.723 1.128h-3c0-.84.298-1.503.892-1.994.605-.491 1.322-.829 2.154-1.014a10.89 10.89 0 0 1 2.478-.294Zm2.446 4.855c-.492.24-1.246.36-2.261.36-.688 0-1.226.026-1.616.081-.38.055-.662.153-.846.295-.175.131-.267.326-.277.588.03.36.205.632.523.817.328.186.877.278 1.646.278 1.015 0 1.739-.235 2.17-.703a2.39 2.39 0 0 0 .661-1.7V7.65ZM91.17 0h-3v2.223h3V0Zm0 12.095h-3V2.696h3v9.4ZM98.797 2.893c1.211 0 2.154.425 2.831 1.275.677.85 1.016 2.267 1.016 4.25v3.678h-3V8.467c0-.697-.047-1.286-.139-1.765a2.232 2.232 0 0 0-.6-1.21c-.318-.326-.8-.49-1.446-.49-.646 0-1.185.163-1.523.49-.329.316-.539.72-.631 1.21-.093.48-.139 1.079-.139 1.798v3.596h-3V3.187h3v1.144c.8-.958 2.01-1.438 3.631-1.438ZM8.141 21.372c1.077 0 2.01.072 2.8.213.79.141 1.447.447 1.97.915.534.47.8 1.161.8 2.077 0 1.678-.693 2.811-2.078 3.4-1.385.588-2.938.882-4.662.882-1.723 0-3.277-.3-4.753-.899C.74 27.35.002 26.195.002 24.497l3.307-.033c0 .599.215 1.045.646 1.34.441.294.918.48 1.431.556.524.065 1.087.098 1.693.098.923 0 1.718-.141 2.384-.425.667-.283 1.005-.741 1.016-1.373v-.016c0-.469-.334-.768-1-.899-.657-.14-1.452-.212-2.385-.212H6.14c-1.23 0-2.273-.065-3.124-.196-.851-.141-1.569-.458-2.154-.948C.288 21.886 0 21.135 0 20.132c0-2.735 2.323-4.102 6.97-4.102 1.651 0 3.184.3 4.6.898 1.425.6 2.138 1.755 2.138 3.466H10.43c0-.61-.333-1.074-1-1.39-.666-.316-1.477-.495-2.43-.54-1.037 0-1.918.132-2.647.393-.718.262-1.077.67-1.077 1.226 0 .872 1.19 1.309 3.57 1.309l1.295-.02ZM25.73 24.233c-.02.774-.2 1.51-.538 2.207a4.398 4.398 0 0 1-1.431 1.7c-.616.424-1.318.637-2.108.637-1.764 0-3.097-.442-4-1.324v4.136h-3V19.575h2.692l.215 1.192c.902-.958 2.267-1.422 4.093-1.389.79 0 1.488.208 2.092.621.616.414 1.097.98 1.446 1.7s.528 1.526.539 2.42v.114Zm-5.63 2.583c.544 0 1.005-.132 1.385-.393.39-.261.682-.594.877-.997.205-.413.313-.84.323-1.275-.02-.806-.246-1.482-.677-2.026-.43-.545-1.067-.818-1.908-.818-.472 0-.898.126-1.277.376a2.55 2.55 0 0 0-.861.997 2.935 2.935 0 0 0-.308 1.324v.033c0 .817.226 1.487.677 2.01.45.513 1.041.769 1.769.769ZM32.244 19.199c1.077 0 2.046.207 2.908.62.862.415 1.533.993 2.016 1.734.492.73.738 1.552.738 2.468a4.34 4.34 0 0 1-.738 2.468c-.482.73-1.154 1.302-2.016 1.717-.862.414-1.83.62-2.908.62a6.761 6.761 0 0 1-2.907-.62c-.902-.425-1.626-1.003-2.17-1.733a4.102 4.102 0 0 1-.8-2.452c0-.894.268-1.722.8-2.452.544-.741 1.267-1.318 2.17-1.733a6.74 6.74 0 0 1 2.907-.637Zm0 7.567c.739 0 1.37-.234 1.893-.703.523-.468.784-1.15.784-2.043 0-.894-.261-1.59-.784-2.06-.524-.468-1.154-.703-1.893-.703-.472 0-.928.103-1.369.31-.43.197-.784.502-1.061.916-.277.414-.416.927-.416 1.537 0 .61.139 1.106.416 1.52.277.414.63.725 1.061.932.442.196.898.294 1.37.294ZM41.647 21.062c.8-.927 2.056-1.476 3.77-1.65v2.55h-1.924c-.708 0-1.19.26-1.446.784-.246.523-.37 1.23-.37 2.124v3.612h-3v-8.909h2.678l.292 1.489ZM50.94 19.575h1.6v2.288h-1.6v6.62h-3v-6.62h-1.677v-2.288h1.678v-1.93l3-1.52v3.45ZM58.647 23.253c.288 0 .508-.006.662-.016l.816-.016c1.169 0 2.118.169 2.846.506.728.327 1.093.986 1.093 1.978 0 1.286-.534 2.135-1.6 2.55-1.067.404-2.308.605-3.724.605-1.415 0-2.65-.223-3.8-.67-1.148-.458-1.723-1.33-1.723-2.616l3.03.016c0 .545.247.921.739 1.128.492.197 1.077.295 1.754.295.83 0 1.435-.098 1.815-.295.38-.196.57-.501.57-.915 0-.414-.22-.66-.662-.768-.43-.12-.83-.18-1.2-.18h-.677c-.954 0-1.806-.05-2.554-.148-.749-.11-1.406-.36-1.97-.752-.564-.404-.846-1.008-.846-1.814 0-1.21.554-2 1.66-2.37 1.108-.37 2.385-.556 3.831-.556 1.447 0 2.611.223 3.709.67 1.097.447 1.646 1.313 1.646 2.6l-2.985-.017c0-.567-.282-.942-.846-1.128-.564-.185-1.072-.277-1.524-.277-1.641 0-2.461.349-2.461 1.046.002.74.801 1.122 2.401 1.144ZM110.422 2.332a.273.273 0 0 1 .515 0l.969 2.476c.04.102.131.172.235.181l2.516.215c.247.02.347.348.159.52l-1.917 1.744a.308.308 0 0 0-.09.294l.586 2.608c.057.257-.205.459-.416.322l-2.154-1.398a.265.265 0 0 0-.291 0l-2.154 1.398c-.211.137-.473-.065-.416-.322l.586-2.608a.309.309 0 0 0-.091-.294l-1.917-1.744c-.187-.172-.087-.5.16-.52l2.516-.215a.283.283 0 0 0 .235-.181l.969-2.476Z"/></svg>