<svg width="300" height="99" viewBox="0 0 300 99" fill="none" xmlns="http://www.w3.org/2000/svg">
<path d="M167.208 99C141.827 99 121.223 78.3892 121.223 53C121.223 27.6108 141.827 7 167.208 7C192.59 7 213.194 27.6108 213.194 53C213.194 78.3892 192.59 98.9568 167.208 99ZM167.208 12.5125C144.863 12.5125 126.733 30.6333 126.733 53C126.733 75.3667 144.849 93.4875 167.208 93.4875C189.568 93.4875 207.683 75.3667 207.683 53C207.683 30.6333 189.554 12.5269 167.208 12.5269V12.5125Z" fill="#FFD600"/>
<path d="M167.395 76C180.094 76 190.388 65.7025 190.388 53C190.388 40.2975 180.094 30 167.395 30C154.697 30 144.402 40.2975 144.402 53C144.402 65.7025 154.697 76 167.395 76Z" fill="white"/>
<path d="M44.4173 80.9661L39.4532 69.1927H16.8345L11.8705 80.9661H0L24.1439 24.8047H32.7482L56.2446 80.9661H44.4317H44.4173ZM20.2734 60.269H36.2734L28.2734 40.0325L20.2734 60.269Z" fill="white"/>
<path d="M100.303 34.2321H87.6987V80.9661H76.749V34.2321H64.1016V24.8047H100.289V34.2321H100.303Z" fill="white"/>
<path d="M233.426 80.9661L243.857 24.8047H251.771L266.678 60.4993L282.26 24.8047H290.174L299.598 80.9661H288.476L283.411 46.3798L268.332 80.9661H264.649L250.26 46.3798L244.562 80.9661H233.44H233.426Z" fill="white"/>
<g filter="url(#filter0_d_353_523)">
<path d="M197.784 35.9884C204.769 35.9884 210.432 30.3242 210.432 23.337C210.432 16.3498 204.769 10.6855 197.784 10.6855C190.799 10.6855 185.137 16.3498 185.137 23.337C185.137 30.3242 190.799 35.9884 197.784 35.9884Z" fill="white"/>
</g>
<defs>
<filter id="filter0_d_353_523" x="175.137" y="0.685547" width="45.2949" height="45.303" filterUnits="userSpaceOnUse" color-interpolation-filters="sRGB">
<feFlood flood-opacity="0" result="BackgroundImageFix"/>
<feColorMatrix in="SourceAlpha" type="matrix" values="0 0 0 0 0 0 0 0 0 0 0 0 0 0 0 0 0 0 127 0" result="hardAlpha"/>
<feOffset/>
<feGaussianBlur stdDeviation="5"/>
<feColorMatrix type="matrix" values="0 0 0 0 0 0 0 0 0 0 0 0 0 0 0 0 0 0 0.15 0"/>
<feBlend mode="normal" in2="BackgroundImageFix" result="effect1_dropShadow_353_523"/>
<feBlend mode="normal" in="SourceGraphic" in2="effect1_dropShadow_353_523" result="shape"/>
</filter>
</defs>
</svg>
