<svg width="162" height="86" viewBox="0 0 162 86" fill="none" xmlns="http://www.w3.org/2000/svg">
<path d="M9.36671 0.444444H16.877C22.1434 0.444444 24.3873 3.2 23.1051 8.13333L23.0593 8.35556C21.9602 12.7556 19.1668 15.0667 16.6023 15.4667L16.5107 15.8222C19.0294 16.1333 20.9985 18.8889 19.8537 23.3333L19.7621 23.7778C18.4798 28.7111 14.5415 31.5556 9.04614 31.5556H1.39844L9.36671 0.444444ZM13.6714 5.06667L11.5648 13.3333H13.4882C15.4116 13.3333 16.5107 12.4444 17.0602 10.3111L17.6097 8.13333C18.1593 6.04445 17.7013 5.06667 15.778 5.06667H13.6714ZM10.3742 18L8.08446 26.8889H10.191C12.2518 26.8889 13.4424 25.8222 13.992 23.6444L14.6789 21.0222C15.2284 18.8889 14.5415 18 12.4807 18H10.3742Z" fill="url(#paint0_linear_53_43)"/>
<path d="M32.7921 7.68889L28.5332 24.3111C28.0295 26.2667 28.6706 27.3778 30.365 27.3778C32.0594 27.3778 33.3874 26.2222 33.8912 24.3111L35.5856 17.6H41.1267L39.4781 23.9111C38.1959 29.0222 34.3491 32 29.1285 32C23.9995 32 21.8014 29.0667 23.1294 23.9111L27.2052 8.04444C28.5332 2.88889 32.1968 0 37.3716 0C42.5921 0 44.8819 2.97778 43.5996 8.04444L41.951 14.4H36.4099L38.1501 7.68889C38.6996 5.68889 38.0127 4.66667 36.3183 4.66667C34.6239 4.66667 33.2958 5.77778 32.7921 7.68889Z" fill="url(#paint1_linear_53_43)"/>
<path d="M62.6692 11.6H57.2196L58.2271 7.68889C58.7308 5.68889 58.0897 4.62222 56.4869 4.62222C54.8383 4.62222 53.5102 5.82222 53.0065 7.68889L52.5485 9.6C51.999 11.7333 52.4112 12.6222 55.6626 14.1333L57.128 14.8C60.3336 16.2667 61.0206 18.4444 59.8299 23.1556L59.6009 23.9111C58.3187 29.0222 54.5177 32 49.2971 32C44.1223 32 41.97 29.1111 43.298 23.9111L44.1681 20.4H49.6635L48.656 24.3111C48.1523 26.2667 48.8392 27.3778 50.4878 27.3778C52.1822 27.3778 53.556 26.2222 54.014 24.3111L54.5635 22.2667C55.113 20.1333 54.6551 19.2889 51.5869 17.8222L49.8925 17.0667C46.7784 15.6 46.0915 13.3333 47.2822 8.62222L47.5111 7.77778C48.7934 2.88889 52.4112 0 57.4944 0C62.6692 0 64.9131 2.97778 63.5851 8.04444L62.6692 11.6Z" fill="url(#paint2_linear_53_43)"/>
<path d="M69.5115 0.444444H77.1592C82.5172 0.444444 84.578 3.82222 82.7004 11.0222L82.6088 11.3778C80.8228 18.4 77.3882 21.1556 71.8013 21.1556H69.6489L66.9928 31.5556H61.4975L69.5115 0.444444ZM73.8162 5.06667L70.8396 16.5333H72.9919C74.9611 16.5333 76.106 15.2444 76.7013 12.9778L77.8004 8.75556C78.4415 6.17778 77.9835 5.06667 76.0144 5.06667H73.8162Z" fill="url(#paint3_linear_53_43)"/>
<path d="M86.9475 8.04444C88.2755 2.88889 91.9391 0 97.1139 0C102.289 0 104.578 2.97778 103.296 8.04444L99.2204 23.9111C97.8924 29.0222 94.0914 32 88.8708 32C83.7419 32 81.5437 29.1111 82.8717 23.9111L86.9475 8.04444ZM92.5344 7.68889L88.2755 24.3111C87.7718 26.2667 88.4129 27.3778 90.0615 27.3778C91.8017 27.3778 93.1298 26.2222 93.6335 24.3111L97.8924 7.68889C98.3961 5.68889 97.755 4.62222 96.1064 4.62222C94.3662 4.62222 93.0382 5.77778 92.5344 7.68889Z" fill="url(#paint4_linear_53_43)"/>
<path d="M109.131 0.444444H116.825C121.999 0.444444 124.335 3.33333 122.915 8.8L122.824 9.28889C121.633 13.8222 118.611 16.4444 116.138 16.8L116.046 17.1556C118.336 17.5111 119.984 20.3111 118.84 24.7111L118.702 25.2444C117.969 28.0444 117.557 29.8667 117.511 31.5556H112.016C112.062 29.7333 112.566 27.6 113.207 25.1556L113.939 22.3556C114.443 20.3111 113.848 19.2889 112.016 19.2889H109.772L106.612 31.5556H101.117L109.131 0.444444ZM113.436 5.11111L110.963 14.6667H113.115C115.039 14.6667 116.229 13.3778 116.779 11.3778L117.557 8.31111C118.107 6.17778 117.511 5.11111 115.634 5.11111H113.436Z" fill="url(#paint5_linear_53_43)"/>
<path d="M143.641 0.444444L142.45 5.06667H137.504L130.681 31.5556H125.186L132.009 5.06667H127.017L128.208 0.444444H143.641Z" fill="url(#paint6_linear_53_43)"/>
<path d="M160.108 11.6H154.658L155.666 7.68889C156.17 5.68889 155.529 4.62222 153.926 4.62222C152.277 4.62222 150.949 5.82222 150.445 7.68889L149.987 9.6C149.438 11.7333 149.85 12.6222 153.101 14.1333L154.567 14.8C157.772 16.2667 158.459 18.4444 157.269 23.1556L157.04 23.9111C155.758 29.0222 151.957 32 146.736 32C141.561 32 139.409 29.1111 140.737 23.9111L141.607 20.4H147.102L146.095 24.3111C145.591 26.2667 146.278 27.3778 147.927 27.3778C149.621 27.3778 150.995 26.2222 151.453 24.3111L152.002 22.2667C152.552 20.1333 152.094 19.2889 149.026 17.8222L147.331 17.0667C144.217 15.6 143.53 13.3333 144.721 8.62222L144.95 7.77778C146.232 2.88889 149.85 0 154.933 0C160.108 0 162.352 2.97778 161.024 8.04444L160.108 11.6Z" fill="url(#paint7_linear_53_43)"/>
<path fill-rule="evenodd" clip-rule="evenodd" d="M55.7952 54.7405L50.047 43.9504H18.24C13.1624 43.9504 8.08476 48.1554 8.08476 54.4231V69.5769C8.08476 75.8446 13.1624 80.0496 18.24 80.0496H63.1243L60.0106 86H18.1921C8.08478 86 0.851562 78.1851 0.851562 69.5769V54.4231C0.851562 45.8545 8.08478 38 18.1921 38H46.8376H54.5019H55.8431L61.8309 50.1388L72.8005 38H82.6683L65.3757 56.6843L70.4533 66.1653L66.0942 74.4165L59.3879 61.2066L48.1309 73.7818H38.1194L55.7952 54.7405Z" fill="#E833EC"/>
<path fill-rule="evenodd" clip-rule="evenodd" d="M144.516 38H93.5255L90.4046 43.9406H144.516C149.606 43.9406 154.695 48.1386 154.695 54.396V69.5248C154.695 75.7822 149.606 79.9802 144.516 79.9802H102.264L97.9428 71.8614H98.8071C109.37 71.8614 114.7 66.396 114.7 58.9109C114.7 54.9109 110.234 50.7525 102.792 50.7525H86.7556L68.0781 85.9604H76.9127L84.4029 71.7426L89.0602 71.8218L96.5984 86H97.3186H105.433H144.564C154.695 86 161.945 78.198 161.945 69.604V54.4752C161.897 45.802 154.647 38 144.516 38ZM92.1811 57.0891L87.7158 65.4455V65.4851H98.711C103.32 65.4851 105.817 63.6238 105.817 60.0594C105.817 58.4356 104.569 57.0891 101.16 57.0891H92.1811Z" fill="#2DE8E8"/>
<defs>
<linearGradient id="paint0_linear_53_43" x1="81.3984" y1="0" x2="81.3984" y2="32" gradientUnits="userSpaceOnUse">
<stop stop-color="white"/>
<stop offset="1" stop-color="white" stop-opacity="0.63"/>
</linearGradient>
<linearGradient id="paint1_linear_53_43" x1="81.3984" y1="0" x2="81.3984" y2="32" gradientUnits="userSpaceOnUse">
<stop stop-color="white"/>
<stop offset="1" stop-color="white" stop-opacity="0.63"/>
</linearGradient>
<linearGradient id="paint2_linear_53_43" x1="81.3984" y1="0" x2="81.3984" y2="32" gradientUnits="userSpaceOnUse">
<stop stop-color="white"/>
<stop offset="1" stop-color="white" stop-opacity="0.63"/>
</linearGradient>
<linearGradient id="paint3_linear_53_43" x1="81.3984" y1="0" x2="81.3984" y2="32" gradientUnits="userSpaceOnUse">
<stop stop-color="white"/>
<stop offset="1" stop-color="white" stop-opacity="0.63"/>
</linearGradient>
<linearGradient id="paint4_linear_53_43" x1="81.3984" y1="0" x2="81.3984" y2="32" gradientUnits="userSpaceOnUse">
<stop stop-color="white"/>
<stop offset="1" stop-color="white" stop-opacity="0.63"/>
</linearGradient>
<linearGradient id="paint5_linear_53_43" x1="81.3984" y1="0" x2="81.3984" y2="32" gradientUnits="userSpaceOnUse">
<stop stop-color="white"/>
<stop offset="1" stop-color="white" stop-opacity="0.63"/>
</linearGradient>
<linearGradient id="paint6_linear_53_43" x1="81.3984" y1="0" x2="81.3984" y2="32" gradientUnits="userSpaceOnUse">
<stop stop-color="white"/>
<stop offset="1" stop-color="white" stop-opacity="0.63"/>
</linearGradient>
<linearGradient id="paint7_linear_53_43" x1="81.3984" y1="0" x2="81.3984" y2="32" gradientUnits="userSpaceOnUse">
<stop stop-color="white"/>
<stop offset="1" stop-color="white" stop-opacity="0.63"/>
</linearGradient>
</defs>
</svg>
