<svg width="33" height="32" viewBox="0 0 33 32" fill="none" xmlns="http://www.w3.org/2000/svg">
<path d="M15.6596 1.4129C16.0155 0.552471 17.2276 0.552471 17.5834 1.4129L21.2055 10.1659C21.3535 10.5271 21.6953 10.7749 22.0828 10.8068L31.4868 11.5645C32.41 11.6389 32.7835 12.7968 32.0788 13.4022L24.9156 19.5704C24.6197 19.8254 24.4893 20.2255 24.5809 20.6079L26.769 29.8283C26.9839 30.7348 26.0044 31.45 25.2152 30.9649L17.1641 26.0254C16.8294 25.82 16.4101 25.82 16.0789 26.0254L8.02795 30.9649C7.23871 31.45 6.25919 30.7348 6.47411 29.8283L8.66214 20.6079C8.75023 20.2255 8.6234 19.8254 8.32391 19.5704L1.16082 13.4022C0.459665 12.7968 0.833126 11.6389 1.75626 11.5645L11.1603 10.8068C11.5478 10.7749 11.8861 10.5271 12.0376 10.1659L15.6596 1.4129Z" fill="white"/>
</svg>
