<svg xmlns="http://www.w3.org/2000/svg" width="445" height="112" fill="none"><path fill="#fff" d="M44.227 20.506c3.22.655 5.655 1.792 7.3 3.41 1.65 1.58 2.474 3.853 2.474 6.82v.23c0 3.159-.842 5.605-2.53 7.337-1.687 1.735-4.023 2.946-7.015 3.64-2.991.655-6.747 1.002-11.268 1.04h-2.413l-29.61-.056V.167h34.67c4.446.04 7.99.964 10.637 2.773 2.646 1.81 3.967 4.373 3.967 7.684v.23c0 2.503-.518 4.546-1.554 6.126-1.036 1.579-2.59 2.755-4.658 3.526Zm-5.465-7.974c0-1.427-.324-2.446-.976-3.062-.651-.655-1.515-1.06-2.586-1.215-1.036-.156-2.53-.23-4.485-.23H12.488v9.015l13.798.117h4.429c2.068 0 3.583-.057 4.542-.174a4.245 4.245 0 0 0 2.473-1.154c.687-.659 1.032-1.756 1.032-3.297ZM32.611 34.43c2.34 0 4.083-.078 5.232-.23 1.148-.191 2.071-.655 2.759-1.388.69-.733 1.036-1.909 1.036-3.523 0-1.615-.346-2.716-1.036-3.41-.691-.733-1.61-1.176-2.76-1.328-1.148-.156-2.892-.23-5.231-.23H12.488v9.996c8.32 0 14.242.039 17.765.117h2.358v-.004ZM68.672 42.924H57.461V.168h11.211v42.756ZM93.938 10.104c4.023 0 7.645.733 10.866 2.195 3.22 1.463 5.729 3.506 7.533 6.126 1.839 2.581 2.759 5.488 2.759 8.724 0 3.237-.92 6.105-2.759 8.725-1.801 2.581-4.313 4.603-7.533 6.066-3.221 1.462-6.843 2.195-10.866 2.195-4.024 0-7.495-.733-10.867-2.195-3.371-1.502-6.074-3.545-8.107-6.126-1.994-2.62-2.991-5.51-2.991-8.668 0-3.159.997-6.087 2.991-8.668 2.033-2.62 4.736-4.66 8.107-6.126 3.376-1.498 6.998-2.248 10.867-2.248Zm0 26.755c2.758 0 5.116-.83 7.071-2.486 1.956-1.657 2.932-4.065 2.932-7.223 0-3.159-.976-5.623-2.932-7.28-1.955-1.658-4.313-2.486-7.071-2.486-1.762 0-3.471.364-5.116 1.097-1.61.694-2.932 1.77-3.968 3.237-1.036 1.462-1.554 3.275-1.554 5.431 0 2.157.518 3.91 1.554 5.376a9.722 9.722 0 0 0 3.968 3.293 13.064 13.064 0 0 0 5.116 1.04ZM117.125 27.322c0-3.236.941-6.143 2.819-8.724 1.878-2.62 4.446-4.66 7.705-6.126 3.26-1.462 6.861-2.195 10.81-2.195 5.673 0 10.215 1.253 13.625 3.757 3.45 2.464 5.712 5.796 6.786 9.995h-11.267c-.459-1.887-1.516-3.427-3.165-4.62-1.61-1.233-3.583-1.849-5.922-1.849-3.066 0-5.5.907-7.301 2.716-1.8 1.77-2.702 4.122-2.702 7.05 0 1.735.384 3.35 1.148 4.854.768 1.463 1.878 2.66 3.333 3.584 1.494.885 3.26 1.328 5.289 1.328 2.414 0 4.447-.599 6.096-1.792 1.687-1.232 2.741-2.773 3.16-4.621h11.268c-.384 2.465-1.515 4.759-3.393 6.876-1.878 2.082-4.313 3.736-7.301 4.968-2.952 1.232-6.173 1.848-9.657 1.848-3.872 0-7.438-.732-10.694-2.195-3.259-1.501-5.845-3.544-7.762-6.126-1.917-2.62-2.875-5.53-2.875-8.728ZM183.981 25.53l17.423 17.394h-13.339L172.657 27.9v15.024h-11.212V.168h11.212v23.11l13.167-11.843h13.568L183.981 25.53Z"/><path fill="#fff" d="M197.645 27.322c0-3.236.937-6.143 2.818-8.724 1.878-2.62 4.447-4.66 7.706-6.126 3.259-1.462 6.86-2.195 10.81-2.195 5.672 0 10.214 1.253 13.625 3.757 3.449 2.464 5.711 5.796 6.786 9.995h-11.268c-.462-1.887-1.515-3.427-3.16-4.62-1.611-1.233-3.584-1.849-5.923-1.849-3.066 0-5.5.907-7.301 2.716-1.8 1.77-2.702 4.122-2.702 7.05 0 1.735.384 3.35 1.148 4.854.768 1.463 1.878 2.66 3.337 3.584 1.494.885 3.259 1.328 5.289 1.328 2.413 0 4.446-.599 6.095-1.792 1.688-1.232 2.741-2.773 3.161-4.621h11.268c-.385 2.465-1.516 4.759-3.394 6.876-1.877 2.082-4.312 3.736-7.3 4.968-2.953 1.232-6.173 1.848-9.658 1.848-3.872 0-7.438-.732-10.693-2.195-3.259-1.501-5.846-3.544-7.762-6.126-1.924-2.62-2.882-5.53-2.882-8.728ZM266.797 10.394c4.257 0 7.745 1.54 10.465 4.62 2.759 3.081 4.14 8.053 4.14 14.908v13.002H270.19V30.095c0-2.464-.172-4.546-.518-6.239-.306-1.696-1.053-3.12-2.241-4.277-1.187-1.155-2.987-1.735-5.404-1.735-2.418 0-4.426.598-5.694 1.791-1.226 1.194-2.012 2.66-2.357 4.391-.346 1.696-.518 3.757-.518 6.182V42.92h-11.212V.168h11.212v15.137c2.91-3.275 7.356-4.911 13.339-4.911ZM305.271 10.047c5.288 0 10.024.924 14.202 2.772 4.179 1.849 6.269 5.103 6.269 9.766v20.339h-10.465l-.92-4.795v-.29c-.88 1.77-2.913 3.159-6.095 4.16-3.143 1.003-6.575 1.502-10.292 1.502-2.991 0-6.018-.616-9.083-1.848-3.066-1.272-4.602-3.987-4.602-8.148 0-4.16 1.304-6.586 3.911-7.857 2.646-1.271 5.483-1.909 8.509-1.909 5.867 0 9.929-.039 12.188-.117 2.262-.116 3.738-.325 4.425-.633.729-.308 1.113-.868 1.149-1.675v-.634c-.039-1.349-.997-2.386-2.875-3.12-1.84-.771-3.968-1.154-6.381-1.154-2.608 0-4.831.443-6.67 1.328-1.801.846-2.703 2.178-2.703 3.987h-11.211c0-2.967 1.113-5.315 3.333-7.05 2.262-1.735 4.943-2.928 8.051-3.583 3.146-.694 6.233-1.041 9.26-1.041Zm9.143 17.162c-1.839.847-4.658 1.272-8.453 1.272-2.568 0-4.58.095-6.039.29-1.42.191-2.473.538-3.16 1.04-.652.465-.998 1.155-1.036 2.08.116 1.27.768 2.234 1.955 2.889 1.226.655 3.277.98 6.152.98 3.795 0 6.497-.828 8.107-2.485 1.649-1.657 2.474-3.661 2.474-6.009v-.057ZM340.715.168h-11.211v7.857h11.211V.168Zm0 42.756h-11.211V9.7h11.211v33.224ZM369.218 10.395c4.524 0 8.051 1.5 10.58 4.507 2.53 3.006 3.795 8.013 3.795 15.024v13.002h-11.211V30.099c0-2.464-.173-4.546-.518-6.239-.307-1.696-1.054-3.12-2.241-4.277-1.191-1.154-2.992-1.735-5.405-1.735-2.414 0-4.429.577-5.694 1.735-1.226 1.115-2.012 2.542-2.357 4.277-.345 1.697-.518 3.814-.518 6.356v12.712h-11.211V11.436h11.211v4.043c2.991-3.388 7.512-5.084 13.569-5.084ZM30.425 75.718c4.023 0 7.512.252 10.464.75 2.953.5 5.405 1.58 7.36 3.237 1.995 1.657 2.988 4.104 2.988 7.34 0 5.931-2.586 9.94-7.762 12.018-5.175 2.082-10.982 3.12-17.423 3.12-6.44 0-12.247-1.059-17.765-3.177C2.766 96.85.007 92.767.007 86.76l12.36-.117c0 2.117.803 3.696 2.414 4.737a13.402 13.402 0 0 0 5.348 1.966c1.956.23 4.063.347 6.325.347 3.45 0 6.42-.5 8.91-1.502 2.492-1.002 3.756-2.62 3.795-4.854v-.057c0-1.657-1.247-2.716-3.738-3.176-2.452-.5-5.423-.75-8.91-.75h-3.566c-4.599 0-8.492-.23-11.674-.695-3.181-.499-5.863-1.618-8.05-3.35C1.074 77.536 0 74.88 0 71.336c0-9.67 8.682-14.504 26.045-14.504 6.173 0 11.902 1.059 17.19 3.176 5.328 2.118 7.992 6.204 7.992 12.252H38.98c0-2.157-1.248-3.796-3.739-4.911-2.49-1.12-5.521-1.753-9.083-1.909-3.872 0-7.167.464-9.89 1.388-2.685.924-4.024 2.369-4.024 4.334 0 3.08 4.446 4.624 13.34 4.624l4.84-.067ZM96.158 85.832a18.003 18.003 0 0 1-2.012 7.8 15.798 15.798 0 0 1-5.349 6.009c-2.3 1.501-4.925 2.252-7.878 2.252-6.592 0-11.574-1.561-14.95-4.681v14.62H54.758V69.363H64.82l.803 4.217c3.372-3.388 8.47-5.028 15.295-4.91 2.953 0 5.56.732 7.819 2.195 2.3 1.462 4.1 3.466 5.404 6.008 1.304 2.543 1.974 5.393 2.012 8.551v.408h.004ZM75.116 94.96c2.033 0 3.756-.464 5.176-1.388 1.455-.924 2.547-2.1 3.277-3.523.768-1.463 1.17-2.967 1.208-4.508-.077-2.85-.92-5.24-2.53-7.163-1.61-1.926-3.988-2.89-7.13-2.89-1.766 0-3.355.444-4.772 1.329a9.178 9.178 0 0 0-3.22 3.523 9.921 9.921 0 0 0-1.149 4.68v.118c0 2.889.842 5.258 2.53 7.106 1.684 1.813 3.89 2.716 6.61 2.716ZM120.5 68.037c4.024 0 7.646.733 10.867 2.195 3.22 1.462 5.729 3.505 7.533 6.126 1.839 2.58 2.759 5.488 2.759 8.724 0 3.237-.92 6.105-2.759 8.725-1.801 2.581-4.313 4.603-7.533 6.069-3.221 1.462-6.843 2.195-10.867 2.195-4.023 0-7.494-.733-10.866-2.195-3.372-1.501-6.074-3.544-8.107-6.126-1.994-2.62-2.988-5.51-2.988-8.668 0-3.158.997-6.086 2.988-8.668 2.033-2.62 4.735-4.66 8.107-6.125 3.372-1.502 6.994-2.252 10.866-2.252Zm0 26.75c2.759 0 5.116-.828 7.072-2.485 1.955-1.657 2.931-4.065 2.931-7.223 0-3.159-.976-5.623-2.931-7.28-1.956-1.657-4.313-2.486-7.072-2.486-1.765 0-3.47.365-5.116 1.098-1.61.694-2.931 1.77-3.967 3.236-1.036 1.462-1.554 3.275-1.554 5.432 0 2.156.518 3.909 1.554 5.375a9.723 9.723 0 0 0 3.967 3.293 13.067 13.067 0 0 0 5.116 1.04ZM155.638 74.62c2.991-3.275 7.684-5.219 14.086-5.835V77.8h-7.187c-2.646 0-4.447.924-5.405 2.773-.92 1.848-1.381 4.351-1.381 7.51v12.768h-11.212V69.359h10.007l1.092 5.262ZM190.37 69.362h5.98v8.09h-5.98v23.402h-11.211V77.453h-6.268v-8.091h6.268v-6.82l11.211-5.375v12.195ZM219.169 82.365c1.075 0 1.9-.021 2.474-.057l3.048-.057c4.369 0 7.917.599 10.637 1.792 2.72 1.154 4.083 3.484 4.083 6.99 0 4.546-1.994 7.549-5.979 9.015-3.985 1.427-8.625 2.138-13.914 2.138-5.288 0-9.908-.789-14.203-2.368-4.291-1.618-6.44-4.7-6.44-9.245l11.327.056c0 1.926.92 3.254 2.759 3.987 1.839.694 4.024 1.041 6.554 1.041 3.104 0 5.366-.347 6.786-1.04 1.416-.695 2.128-1.775 2.128-3.237 0-1.463-.824-2.33-2.473-2.716-1.611-.425-3.105-.637-4.486-.637h-2.53c-3.565 0-6.747-.174-9.544-.52-2.798-.387-5.254-1.272-7.361-2.66-2.107-1.427-3.164-3.562-3.164-6.413 0-4.277 2.072-7.067 6.208-8.377 4.137-1.31 8.911-1.965 14.316-1.965 5.405 0 9.756.79 13.858 2.368 4.101 1.58 6.151 4.643 6.151 9.189l-11.155-.057c0-2.004-1.053-3.332-3.16-3.987-2.107-.655-4.006-.98-5.694-.98-6.134 0-9.2 1.232-9.2 3.696.007 2.617 2.995 3.966 8.974 4.044ZM412.66 8.413c.355-.86 1.568-.86 1.923 0l3.623 8.753c.148.361.489.609.877.64l9.404.758c.923.075 1.296 1.233.592 1.838l-7.163 6.168a1.047 1.047 0 0 0-.335 1.038l2.188 9.22c.215.907-.765 1.622-1.554 1.137l-8.051-4.94a1.032 1.032 0 0 0-1.085 0l-8.051 4.94c-.789.485-1.769-.23-1.554-1.137l2.188-9.22a1.05 1.05 0 0 0-.338-1.038l-7.163-6.168c-.701-.605-.328-1.763.595-1.838l9.404-.757c.388-.032.726-.28.878-.641l3.622-8.753Z"/><path fill="#FFD619" d="M269.088 57.965h158.187c9.341 0 16.913 7.61 16.913 16.996v19.167c0 9.386-7.572 16.996-16.913 16.996H269.088c-9.34 0-16.912-7.61-16.912-16.996V74.96c0-9.387 7.572-16.996 16.912-16.996Z"/><path fill="#000" d="m268.832 94.555 3.876-20.023h13.406l-.687 3.576h-9.555l-.853 4.376h8.671l-.687 3.488h-8.671l-.972 5.007h9.555l-.687 3.576h-13.396Zm23.966.259c-4.992 0-8.128-3.092-7.071-8.552l.655-3.43c1.057-5.464 4.563-8.552 9.809-8.552 4.961 0 8.041 2.805 7.245 7.666h-3.852c.399-2.546-.94-3.948-3.822-3.948-2.883 0-4.933 1.66-5.536 4.837l-.655 3.431c-.596 3.176.627 4.975 3.622 4.975 2.822 0 4.704-1.43 5.331-3.86h3.851c-.994 4.742-4.217 7.433-9.58 7.433h.003Zm17.991 0c-4.993 0-7.984-3.092-6.931-8.552l.656-3.43c1.053-5.464 4.334-8.552 9.953-8.552 5.021 0 7.984 3.091 6.931 8.551l-.655 3.431c-1.054 5.46-4.366 8.552-9.954 8.552Zm-3.083-8.555c-.627 3.261.8 4.975 3.622 4.975s4.933-1.718 5.563-4.975l.656-3.431c.627-3.261-.8-4.837-3.65-4.837-2.851 0-4.909 1.572-5.536 4.837l-.655 3.43Zm20.901 8.555c-4.848 0-7.646-2.635-6.959-6.693h3.823c-.257 1.976.972 3.116 3.425 3.116 2.625 0 4.365-1.115 4.365-2.772 0-1.03-.8-1.633-2.05-1.976l-3.252-.913c-2.34-.66-4.165-2.09-4.165-4.579 0-3.721 2.91-6.72 7.956-6.72 4.563 0 7.3 2.832 6.613 6.38h-3.823c.113-1.572-.912-2.804-3.107-2.804-2.396 0-3.711 1.14-3.711 2.514 0 .913.656 1.345 2.026 1.745l3.393.974c2.823.804 4.081 2.521 4.081 4.55.003 4.062-3.076 7.178-8.612 7.178h-.003Zm14.308-.259 1.766-9.153h-1.713l-2.938-10.87h3.964l2.565 10.155 6.476-10.155h4.362l-7.128 10.87h-1.741l-1.769 9.153h-3.851.007Zm18.956.259c-4.848 0-7.645-2.635-6.958-6.693h3.822c-.257 1.976.969 3.116 3.425 3.116 2.625 0 4.362-1.115 4.362-2.772 0-1.03-.8-1.633-2.054-1.976l-3.252-.913c-2.336-.66-4.161-2.09-4.161-4.579 0-3.721 2.907-6.72 7.956-6.72 4.562 0 7.3 2.832 6.613 6.38h-3.819c.116-1.572-.913-2.804-3.108-2.804-2.399 0-3.706 1.14-3.706 2.514 0 .913.655 1.345 2.022 1.745l3.393.974c2.822.804 4.08 2.521 4.08 4.55-.003 4.062-3.086 7.178-8.615 7.178Zm14.626-.259 3.192-16.45h-5.785l.68-3.577h15.461l-.688 3.576h-5.817l-3.195 16.451h-3.848Zm12.371 0 3.875-20.023h13.407l-.687 3.576h-9.552l-.86 4.376h8.671l-.683 3.488h-8.668l-.972 5.007h9.555l-.687 3.576h-13.399Zm23.307 0 .543-19.308-3.739 19.308h-3.703l3.876-20.023h7.103l-.313 19.308 7.156-19.308h7.103l-3.879 20.023h-3.707l3.735-19.308-6.931 19.308h-7.244Z"/></svg>