<svg xmlns="http://www.w3.org/2000/svg" width="339" height="88" fill="none"><rect width="148.358" height="40.725" x="190.374" y="45.383" fill="#2ECD68" rx="12.943"/><rect width="147.18" height="39.547" x="190.963" y="45.972" stroke="url(#a)" stroke-opacity=".5" stroke-width="1.178" rx="12.354"/><path fill="#000" d="m219 72.973 2.681-13.884h9.267l-.473 2.48h-6.605l-.651 3.371h5.994l-.473 2.42h-5.994l-1.084 5.613H219ZM235.471 73.152c-3.451 0-5.521-2.142-4.792-5.93l.454-2.381c.729-3.788 2.997-5.93 6.881-5.93 3.47 0 5.521 2.142 4.791 5.93l-.453 2.38c-.73 3.789-3.017 5.93-6.881 5.93Zm-2.13-5.93c-.434 2.26.552 3.45 2.504 3.45 1.972 0 3.411-1.19 3.845-3.45l.453-2.381c.434-2.261-.552-3.352-2.523-3.352-1.972 0-3.392 1.09-3.825 3.352l-.454 2.38ZM248.028 73.152c-3.451 0-5.521-2.142-4.792-5.93l.454-2.381c.729-3.788 2.997-5.93 6.881-5.93 3.47 0 5.521 2.142 4.791 5.93l-.453 2.38c-.73 3.789-3.017 5.93-6.881 5.93Zm-2.13-5.93c-.434 2.26.552 3.45 2.504 3.45 1.972 0 3.411-1.19 3.845-3.45l.454-2.381c.433-2.261-.553-3.352-2.524-3.352-1.972 0-3.391 1.09-3.825 3.352l-.454 2.38ZM258.482 72.973l2.208-11.405h-4.002l.473-2.48h10.687l-.474 2.48h-4.022l-2.208 11.405h-2.662ZM267.034 72.973l2.681-13.884h5.895c1.933 0 3.392 1.13 3.392 3.055 0 1.487-.73 2.895-1.696 3.63.552.396 1.085 1.09 1.085 2.22 0 2.916-1.893 4.98-5.147 4.98h-6.21Zm3.115-2.519h3.253c1.321 0 2.169-.773 2.169-2.003 0-.774-.532-1.21-1.558-1.21h-3.253l-.611 3.213Zm1.084-5.692h2.918c1.223 0 2.031-.813 2.031-2.023 0-.595-.434-1.131-1.419-1.131h-2.918l-.612 3.154ZM287.589 72.973l-.237-3.193h-5.382l-1.44 3.193h-2.839l6.467-13.884h5.087l.986 13.884h-2.642Zm-4.436-5.772h4.002l-.552-7.616-3.45 7.616ZM291.301 72.973l2.681-13.884h2.662l-2.208 11.445h6.112l-.473 2.44h-8.774ZM301.162 72.973l2.682-13.884h2.662l-2.209 11.445h6.112l-.473 2.44h-8.774Z"/><path stroke="url(#b)" stroke-opacity=".5" stroke-width="1.643" d="m218.193 72.818-.188.977h4.335l.128-.666.956-4.947h5.993l.129-.664.474-2.42.191-.98h-5.996l.333-1.728H231.025c-.308.699-.54 1.468-.699 2.296v.001l-.453 2.379h-.001c-.396 2.061-.055 3.821 1.009 5.073 1.059 1.246 2.703 1.834 4.59 1.834 2.089 0 3.833-.582 5.159-1.75.731-.643 1.309-1.443 1.746-2.372.164.877.519 1.649 1.063 2.288 1.059 1.246 2.702 1.834 4.589 1.834 2.089 0 3.833-.582 5.159-1.75 1.318-1.16 2.14-2.827 2.529-4.846v-.002l.453-2.379v-.001c.181-.937.209-1.812.087-2.605H259.694l-2.018 10.427-.19.978h4.336l.128-.666 2.08-10.74h4.024l.127-.667.474-2.48.186-.975h-12.36l-.127.668-.428 2.243c-.188-.46-.44-.88-.758-1.254-1.057-1.248-2.702-1.835-4.597-1.835-2.098 0-3.843.582-5.167 1.75-.728.642-1.303 1.44-1.737 2.364-.163-.873-.515-1.642-1.056-2.28-1.057-1.247-2.702-1.834-4.597-1.834-2.098 0-3.843.582-5.167 1.75a7.07 7.07 0 0 0-1.606 2.096l.041-.213.473-2.48.187-.975h-10.939l-.128.666-2.682 13.885Zm15.955-5.442v-.001l.453-2.38c.191-.99.579-1.644 1.06-2.051.48-.406 1.127-.634 1.959-.634.852 0 1.297.235 1.519.516.229.29.393.844.198 1.86l-.001.001-.453 2.38c-.19.992-.586 1.676-1.081 2.11-.491.432-1.143.674-1.957.674-.817 0-1.26-.245-1.49-.55-.242-.322-.401-.913-.207-1.925Zm12.557 0v-.001l.454-2.38c.19-.99.579-1.644 1.06-2.051.479-.406 1.126-.634 1.958-.634.852 0 1.297.235 1.519.516.229.29.393.844.198 1.86v.001l-.454 2.38c-.19.992-.586 1.676-1.081 2.11-.491.432-1.142.674-1.957.674-.817 0-1.26-.245-1.49-.55-.242-.322-.401-.913-.207-1.925Zm19.522 5.442-.189.977H273.244c1.419 0 2.656-.356 3.635-1.025l-.477 1.025h4.659l.218-.484 1.222-2.71h4.089l.18 2.433.056.76h23.788l.129-.664.473-2.44.19-.978h-6.114l2.02-10.467.189-.978h-4.335l-.129.666-2.082 10.78h-5.524l2.02-10.468.188-.978h-4.335l-.128.666-2.28 11.804-.831-11.706-.054-.764H283.635l-.221.475-4.208 9.032c-.043-.844-.332-1.5-.718-1.995a5.673 5.673 0 0 0 1.335-3.635c0-1.187-.458-2.183-1.256-2.871-.784-.677-1.836-1.006-2.957-1.006H269.037l-.129.666-2.681 13.885Zm19.791-9.95.254 3.512h-1.845l1.591-3.511Zm-12.616 6.765h-2.261l.299-1.57h2.573c.414 0 .594.09.655.138.03.024.081.068.081.25 0 .417-.138.687-.323.858-.194.178-.521.324-1.024.324Zm.749-5.693h-1.922l.293-1.51h2.241c.347 0 .487.092.53.131.039.035.068.085.068.178 0 .417-.136.704-.316.884-.18.18-.469.317-.894.317Z"/><mask id="d" width="298" height="88" x="-.016" y=".11" fill="#000" maskUnits="userSpaceOnUse"><path fill="#fff" d="M-.016.11h298v88h-298z"/><path d="M35.147 16.692c2.488.501 4.368 1.372 5.642 2.611 1.273 1.21 1.91 2.951 1.91 5.223v.178c0 2.42-.652 4.293-1.955 5.621-1.303 1.328-3.11 2.258-5.42 2.789-2.31.502-5.212.767-8.707.797h-1.866l-22.878-.044V1.11H28.66c3.435.03 6.175.738 8.218 2.125 2.044 1.387 3.066 3.35 3.066 5.887V9.3c0 1.918-.4 3.482-1.2 4.692-.8 1.21-1.999 2.11-3.598 2.7Zm-4.22-6.11c0-1.091-.252-1.873-.756-2.345-.503-.502-1.17-.812-1.999-.93-.8-.118-1.955-.177-3.465-.177H10.624v6.906l10.662.088h3.42c1.6 0 2.77-.044 3.51-.133a3.285 3.285 0 0 0 1.91-.885c.534-.502.8-1.343.8-2.523ZM26.172 27.36c1.807 0 3.154-.06 4.043-.178.888-.147 1.599-.501 2.132-1.062.533-.56.8-1.46.8-2.7 0-1.21-.267-2.08-.8-2.612-.533-.56-1.244-.9-2.133-1.018-.888-.118-2.235-.177-4.042-.177H10.624v7.658c6.427 0 11.003.03 13.728.088h1.82ZM54.033 33.867h-8.662V1.11h8.662v32.757ZM73.561 8.724c3.11 0 5.909.56 8.397 1.682 2.487 1.121 4.427 2.685 5.82 4.692 1.421 1.977 2.132 4.205 2.132 6.684 0 2.45-.711 4.677-2.133 6.684-1.392 1.977-3.332 3.527-5.82 4.648-2.487 1.121-5.286 1.682-8.395 1.682-2.992 0-5.79-.56-8.397-1.682-2.606-1.15-4.694-2.715-6.264-4.692-1.54-2.007-2.31-4.22-2.31-6.64 0-2.45.77-4.663 2.31-6.64 1.57-2.006 3.658-3.57 6.264-4.692 2.606-1.15 5.405-1.726 8.396-1.726Zm0 20.495c2.133 0 3.954-.635 5.465-1.904 1.51-1.269 2.265-3.113 2.265-5.533 0-2.45-.755-4.308-2.265-5.577-1.51-1.27-3.332-1.904-5.465-1.904-1.362 0-2.68.28-3.953.841a7.155 7.155 0 0 0-3.066 2.48c-.8 1.12-1.2 2.508-1.2 4.16 0 1.623.4 2.995 1.2 4.117a7.48 7.48 0 0 0 3.066 2.523c1.273.531 2.591.797 3.953.797ZM91.472 21.915c0-2.479.725-4.707 2.176-6.684 1.452-2.007 3.436-3.571 5.953-4.692 2.518-1.122 5.302-1.682 8.352-1.682 4.383 0 7.893.959 10.529 2.877 2.665 1.889 4.413 4.441 5.242 7.658h-8.707c-.356-1.446-1.17-2.627-2.444-3.541-1.244-.945-2.769-1.417-4.575-1.417-2.37 0-4.25.694-5.642 2.08-1.392 1.358-2.088 3.158-2.088 5.4 0 1.329.296 2.568.888 3.72.592 1.12 1.451 2.035 2.577 2.744 1.155.678 2.517 1.018 4.087 1.018 1.866 0 3.435-.458 4.709-1.373 1.303-.944 2.117-2.124 2.443-3.54h8.707c-.296 1.888-1.169 3.644-2.621 5.267-1.451 1.593-3.331 2.862-5.642 3.807-2.28.944-4.768 1.416-7.463 1.416-2.991 0-5.745-.56-8.263-1.682-2.517-1.15-4.516-2.715-5.997-4.692-1.481-2.007-2.221-4.235-2.221-6.684ZM143.126 20.543l13.461 13.324H146.28l-11.906-11.51v11.51h-8.663V1.11h8.663v17.706l10.174-9.074h10.484l-11.906 10.8Z"/><path d="M153.683 21.915c0-2.479.726-4.707 2.177-6.684 1.451-2.007 3.436-3.571 5.953-4.692 2.518-1.122 5.301-1.682 8.352-1.682 4.383 0 7.893.959 10.529 2.877 2.665 1.889 4.412 4.441 5.242 7.658h-8.708c-.355-1.446-1.169-2.627-2.443-3.541-1.244-.945-2.769-1.417-4.576-1.417-2.369 0-4.25.694-5.642 2.08-1.392 1.358-2.088 3.158-2.088 5.4 0 1.329.297 2.568.889 3.72.592 1.12 1.451 2.035 2.577 2.744 1.155.678 2.517 1.018 4.087 1.018 1.866 0 3.435-.458 4.709-1.373 1.303-.944 2.117-2.124 2.443-3.54h8.707c-.296 1.888-1.17 3.644-2.621 5.267-1.451 1.593-3.332 2.862-5.642 3.807-2.28.944-4.768 1.416-7.463 1.416-2.991 0-5.746-.56-8.263-1.682-2.517-1.15-4.517-2.715-5.997-4.692-1.481-2.007-2.222-4.235-2.222-6.684ZM207.115 8.945c3.287 0 5.982 1.18 8.085 3.541 2.132 2.361 3.199 6.168 3.199 11.42v9.96h-8.663V24.04c0-1.89-.133-3.483-.4-4.781-.237-1.299-.814-2.39-1.733-3.276-.918-.885-2.31-1.328-4.175-1.328-1.955 0-3.421.458-4.399 1.373-.947.914-1.554 2.036-1.821 3.364-.266 1.298-.4 2.877-.4 4.736v9.739h-8.663V1.11h8.663v11.598c2.251-2.509 5.687-3.763 10.307-3.763ZM236.844 8.68c4.087 0 7.745.708 10.973 2.124 3.228 1.417 4.842 3.91 4.842 7.481v15.582h-8.085l-.711-3.674v-.222c-.681 1.358-2.251 2.42-4.709 3.187-2.428.768-5.079 1.151-7.952 1.151-2.31 0-4.649-.472-7.019-1.416-2.369-.974-3.554-3.055-3.554-6.242 0-3.04 1.007-5.046 3.021-6.02 2.044-.974 4.235-1.46 6.575-1.46 4.531 0 7.671-.03 9.418-.09 1.747-.088 2.888-.25 3.421-.486.562-.236.859-.664.888-1.284v-.487c-.029-1.033-.77-1.83-2.221-2.39-1.422-.59-3.065-.885-4.931-.885-2.014 0-3.732.34-5.153 1.018-1.392.649-2.088 1.667-2.088 3.054h-8.663c0-2.272.859-4.072 2.576-5.4 1.748-1.328 3.821-2.243 6.22-2.745a33.41 33.41 0 0 1 7.152-.796Zm7.064 13.146c-1.422.65-3.599.974-6.531.974-1.984 0-3.539.074-4.664.221-1.096.148-1.911.414-2.444.797-.503.354-.77.886-.799 1.594.089.974.592 1.711 1.51 2.213.948.502 2.532.753 4.754.753 2.932 0 5.02-.635 6.263-1.904 1.274-1.269 1.911-2.803 1.911-4.603v-.045ZM264.226 1.11h-8.663v6.02h8.663V1.11Zm0 32.757h-8.663V8.414h8.663v25.453ZM286.25 8.945c3.495 0 6.22 1.151 8.174 3.453 1.955 2.302 2.932 6.138 2.932 11.509v9.96h-8.662V24.04c0-1.89-.134-3.483-.4-4.781-.237-1.299-.815-2.39-1.733-3.276-.918-.885-2.31-1.328-4.176-1.328-1.954 0-3.42.443-4.398 1.328-.947.856-1.555 1.948-1.821 3.276-.267 1.298-.4 2.921-.4 4.87v9.738h-8.663V9.742h8.663v3.098c2.31-2.597 5.805-3.895 10.484-3.895ZM24.485 58.99c3.11 0 5.805.192 8.085.576 2.28.383 4.176 1.21 5.686 2.479 1.54 1.269 2.31 3.142 2.31 5.621 0 4.545-1.999 7.614-5.997 9.208-3.998 1.593-8.485 2.39-13.46 2.39-4.887 0-9.463-.812-13.728-2.435C3.117 75.177.984 72.05.984 67.445l9.551-.088c0 1.623.622 2.832 1.866 3.63a10.42 10.42 0 0 0 4.132 1.504c1.51.177 3.14.266 4.886.266 2.666 0 4.961-.384 6.886-1.151 1.925-.767 2.903-2.007 2.932-3.718v-.045c0-1.269-.962-2.08-2.887-2.434-1.896-.384-4.191-.576-6.886-.576H18.71c-3.554 0-6.56-.177-9.019-.53-2.458-.384-4.531-1.24-6.22-2.568C1.814 60.377.985 58.34.985 55.626c0-7.407 6.708-11.11 20.124-11.11 4.769 0 9.196.811 13.284 2.434 4.116 1.623 6.174 4.751 6.174 9.384h-9.462c0-1.652-.962-2.906-2.888-3.762-1.925-.856-4.264-1.343-7.019-1.46-2.99 0-5.538.353-7.64 1.061-2.074.709-3.11 1.815-3.11 3.32 0 2.361 3.435 3.542 10.306 3.542l3.732-.045ZM75.274 66.737a13.69 13.69 0 0 1-1.555 5.976 12.141 12.141 0 0 1-4.131 4.603c-1.777 1.151-3.806 1.727-6.087 1.727-5.094 0-8.944-1.196-11.55-3.586v11.2h-8.663V54.12h7.775l.621 3.231c2.607-2.596 6.546-3.85 11.817-3.762 2.28 0 4.295.56 6.042 1.682 1.777 1.121 3.17 2.656 4.176 4.604 1.007 1.947 1.525 4.131 1.555 6.55v.31Zm-16.26 6.994c1.57 0 2.903-.354 3.999-1.063 1.125-.708 1.97-1.608 2.532-2.7.592-1.121.903-2.272.933-3.453-.06-2.183-.711-4.013-1.955-5.489-1.244-1.475-3.08-2.213-5.508-2.213-1.363 0-2.592.34-3.688 1.018a7.051 7.051 0 0 0-2.487 2.7 7.566 7.566 0 0 0-.889 3.586v.089c0 2.213.651 4.028 1.955 5.444 1.303 1.387 3.006 2.08 5.108 2.08ZM94.082 53.103c3.11 0 5.908.56 8.396 1.682 2.488 1.122 4.428 2.686 5.82 4.692 1.421 1.977 2.132 4.206 2.132 6.684 0 2.45-.711 4.678-2.132 6.684-1.392 1.978-3.332 3.527-5.82 4.648-2.488 1.122-5.286 1.682-8.396 1.682-2.991 0-5.79-.56-8.396-1.682-2.607-1.15-4.695-2.715-6.264-4.692-1.54-2.007-2.31-4.22-2.31-6.64 0-2.449.77-4.662 2.31-6.64 1.57-2.006 3.657-3.57 6.264-4.692 2.606-1.15 5.405-1.726 8.396-1.726Zm0 20.495c2.132 0 3.954-.635 5.464-1.903 1.511-1.27 2.266-3.114 2.266-5.534 0-2.449-.755-4.308-2.266-5.577-1.51-1.27-3.332-1.904-5.464-1.904-1.362 0-2.68.28-3.954.842A7.155 7.155 0 0 0 87.063 62c-.8 1.122-1.2 2.509-1.2 4.161 0 1.623.4 2.996 1.2 4.117a7.48 7.48 0 0 0 3.065 2.523c1.274.531 2.591.797 3.954.797ZM121.232 58.15c2.31-2.51 5.938-4 10.884-4.471v6.905h-5.553c-2.043 0-3.435.708-4.176 2.125-.711 1.416-1.066 3.334-1.066 5.754v9.783h-8.663V54.12h7.73l.844 4.028ZM148.067 54.121h4.62v6.197h-4.62v17.928h-8.663V60.318h-4.842v-6.197h4.842v-5.223l8.663-4.117v9.34ZM170.319 64.08c.829 0 1.466-.014 1.91-.043l2.354-.045c3.377 0 6.116.458 8.219 1.373 2.103.885 3.154 2.67 3.154 5.356 0 3.482-1.54 5.784-4.62 6.905-3.08 1.092-6.664 1.638-10.751 1.638-3.998 0-7.656-.605-10.973-1.815-3.317-1.24-4.975-3.6-4.975-7.082l8.751.044c0 1.475.711 2.493 2.133 3.054 1.421.531 3.11.797 5.064.797 2.399 0 4.147-.266 5.242-.797 1.096-.531 1.644-1.357 1.644-2.479 0-1.092-.637-1.785-1.91-2.08-1.244-.325-2.399-.487-3.465-.487h-1.955c-2.754 0-5.213-.133-7.375-.398-2.161-.296-4.057-.974-5.686-2.037-1.629-1.092-2.443-2.73-2.443-4.913 0-3.276 1.599-5.415 4.798-6.419 3.198-1.003 6.885-1.505 11.061-1.505 3.969 0 7.538.605 10.707 1.815 3.169 1.21 4.753 3.556 4.753 7.038l-8.618-.044c0-1.534-.815-2.553-2.444-3.054-1.628-.502-3.095-.753-4.398-.753-4.738 0-7.108.945-7.108 2.833 0 2.007 2.311 3.04 6.931 3.099Z"/></mask><path fill="#fff" d="M35.147 16.692c2.488.501 4.368 1.372 5.642 2.611 1.273 1.21 1.91 2.951 1.91 5.223v.178c0 2.42-.652 4.293-1.955 5.621-1.303 1.328-3.11 2.258-5.42 2.789-2.31.502-5.212.767-8.707.797h-1.866l-22.878-.044V1.11H28.66c3.435.03 6.175.738 8.218 2.125 2.044 1.387 3.066 3.35 3.066 5.887V9.3c0 1.918-.4 3.482-1.2 4.692-.8 1.21-1.999 2.11-3.598 2.7Zm-4.22-6.11c0-1.091-.252-1.873-.756-2.345-.503-.502-1.17-.812-1.999-.93-.8-.118-1.955-.177-3.465-.177H10.624v6.906l10.662.088h3.42c1.6 0 2.77-.044 3.51-.133a3.285 3.285 0 0 0 1.91-.885c.534-.502.8-1.343.8-2.523ZM26.172 27.36c1.807 0 3.154-.06 4.043-.178.888-.147 1.599-.501 2.132-1.062.533-.56.8-1.46.8-2.7 0-1.21-.267-2.08-.8-2.612-.533-.56-1.244-.9-2.133-1.018-.888-.118-2.235-.177-4.042-.177H10.624v7.658c6.427 0 11.003.03 13.728.088h1.82ZM54.033 33.867h-8.662V1.11h8.662v32.757ZM73.561 8.724c3.11 0 5.909.56 8.397 1.682 2.487 1.121 4.427 2.685 5.82 4.692 1.421 1.977 2.132 4.205 2.132 6.684 0 2.45-.711 4.677-2.133 6.684-1.392 1.977-3.332 3.527-5.82 4.648-2.487 1.121-5.286 1.682-8.395 1.682-2.992 0-5.79-.56-8.397-1.682-2.606-1.15-4.694-2.715-6.264-4.692-1.54-2.007-2.31-4.22-2.31-6.64 0-2.45.77-4.663 2.31-6.64 1.57-2.006 3.658-3.57 6.264-4.692 2.606-1.15 5.405-1.726 8.396-1.726Zm0 20.495c2.133 0 3.954-.635 5.465-1.904 1.51-1.269 2.265-3.113 2.265-5.533 0-2.45-.755-4.308-2.265-5.577-1.51-1.27-3.332-1.904-5.465-1.904-1.362 0-2.68.28-3.953.841a7.155 7.155 0 0 0-3.066 2.48c-.8 1.12-1.2 2.508-1.2 4.16 0 1.623.4 2.995 1.2 4.117a7.48 7.48 0 0 0 3.066 2.523c1.273.531 2.591.797 3.953.797ZM91.472 21.915c0-2.479.725-4.707 2.176-6.684 1.452-2.007 3.436-3.571 5.953-4.692 2.518-1.122 5.302-1.682 8.352-1.682 4.383 0 7.893.959 10.529 2.877 2.665 1.889 4.413 4.441 5.242 7.658h-8.707c-.356-1.446-1.17-2.627-2.444-3.541-1.244-.945-2.769-1.417-4.575-1.417-2.37 0-4.25.694-5.642 2.08-1.392 1.358-2.088 3.158-2.088 5.4 0 1.329.296 2.568.888 3.72.592 1.12 1.451 2.035 2.577 2.744 1.155.678 2.517 1.018 4.087 1.018 1.866 0 3.435-.458 4.709-1.373 1.303-.944 2.117-2.124 2.443-3.54h8.707c-.296 1.888-1.169 3.644-2.621 5.267-1.451 1.593-3.331 2.862-5.642 3.807-2.28.944-4.768 1.416-7.463 1.416-2.991 0-5.745-.56-8.263-1.682-2.517-1.15-4.516-2.715-5.997-4.692-1.481-2.007-2.221-4.235-2.221-6.684ZM143.126 20.543l13.461 13.324H146.28l-11.906-11.51v11.51h-8.663V1.11h8.663v17.706l10.174-9.074h10.484l-11.906 10.8Z"/><path fill="#fff" d="M153.683 21.915c0-2.479.726-4.707 2.177-6.684 1.451-2.007 3.436-3.571 5.953-4.692 2.518-1.122 5.301-1.682 8.352-1.682 4.383 0 7.893.959 10.529 2.877 2.665 1.889 4.412 4.441 5.242 7.658h-8.708c-.355-1.446-1.169-2.627-2.443-3.541-1.244-.945-2.769-1.417-4.576-1.417-2.369 0-4.25.694-5.642 2.08-1.392 1.358-2.088 3.158-2.088 5.4 0 1.329.297 2.568.889 3.72.592 1.12 1.451 2.035 2.577 2.744 1.155.678 2.517 1.018 4.087 1.018 1.866 0 3.435-.458 4.709-1.373 1.303-.944 2.117-2.124 2.443-3.54h8.707c-.296 1.888-1.17 3.644-2.621 5.267-1.451 1.593-3.332 2.862-5.642 3.807-2.28.944-4.768 1.416-7.463 1.416-2.991 0-5.746-.56-8.263-1.682-2.517-1.15-4.517-2.715-5.997-4.692-1.481-2.007-2.222-4.235-2.222-6.684ZM207.115 8.945c3.287 0 5.982 1.18 8.085 3.541 2.132 2.361 3.199 6.168 3.199 11.42v9.96h-8.663V24.04c0-1.89-.133-3.483-.4-4.781-.237-1.299-.814-2.39-1.733-3.276-.918-.885-2.31-1.328-4.175-1.328-1.955 0-3.421.458-4.399 1.373-.947.914-1.554 2.036-1.821 3.364-.266 1.298-.4 2.877-.4 4.736v9.739h-8.663V1.11h8.663v11.598c2.251-2.509 5.687-3.763 10.307-3.763ZM236.844 8.68c4.087 0 7.745.708 10.973 2.124 3.228 1.417 4.842 3.91 4.842 7.481v15.582h-8.085l-.711-3.674v-.222c-.681 1.358-2.251 2.42-4.709 3.187-2.428.768-5.079 1.151-7.952 1.151-2.31 0-4.649-.472-7.019-1.416-2.369-.974-3.554-3.055-3.554-6.242 0-3.04 1.007-5.046 3.021-6.02 2.044-.974 4.235-1.46 6.575-1.46 4.531 0 7.671-.03 9.418-.09 1.747-.088 2.888-.25 3.421-.486.562-.236.859-.664.888-1.284v-.487c-.029-1.033-.77-1.83-2.221-2.39-1.422-.59-3.065-.885-4.931-.885-2.014 0-3.732.34-5.153 1.018-1.392.649-2.088 1.667-2.088 3.054h-8.663c0-2.272.859-4.072 2.576-5.4 1.748-1.328 3.821-2.243 6.22-2.745a33.41 33.41 0 0 1 7.152-.796Zm7.064 13.146c-1.422.65-3.599.974-6.531.974-1.984 0-3.539.074-4.664.221-1.096.148-1.911.414-2.444.797-.503.354-.77.886-.799 1.594.089.974.592 1.711 1.51 2.213.948.502 2.532.753 4.754.753 2.932 0 5.02-.635 6.263-1.904 1.274-1.269 1.911-2.803 1.911-4.603v-.045ZM264.226 1.11h-8.663v6.02h8.663V1.11Zm0 32.757h-8.663V8.414h8.663v25.453ZM286.25 8.945c3.495 0 6.22 1.151 8.174 3.453 1.955 2.302 2.932 6.138 2.932 11.509v9.96h-8.662V24.04c0-1.89-.134-3.483-.4-4.781-.237-1.299-.815-2.39-1.733-3.276-.918-.885-2.31-1.328-4.176-1.328-1.954 0-3.42.443-4.398 1.328-.947.856-1.555 1.948-1.821 3.276-.267 1.298-.4 2.921-.4 4.87v9.738h-8.663V9.742h8.663v3.098c2.31-2.597 5.805-3.895 10.484-3.895ZM24.485 58.99c3.11 0 5.805.192 8.085.576 2.28.383 4.176 1.21 5.686 2.479 1.54 1.269 2.31 3.142 2.31 5.621 0 4.545-1.999 7.614-5.997 9.208-3.998 1.593-8.485 2.39-13.46 2.39-4.887 0-9.463-.812-13.728-2.435C3.117 75.177.984 72.05.984 67.445l9.551-.088c0 1.623.622 2.832 1.866 3.63a10.42 10.42 0 0 0 4.132 1.504c1.51.177 3.14.266 4.886.266 2.666 0 4.961-.384 6.886-1.151 1.925-.767 2.903-2.007 2.932-3.718v-.045c0-1.269-.962-2.08-2.887-2.434-1.896-.384-4.191-.576-6.886-.576H18.71c-3.554 0-6.56-.177-9.019-.53-2.458-.384-4.531-1.24-6.22-2.568C1.814 60.377.985 58.34.985 55.626c0-7.407 6.708-11.11 20.124-11.11 4.769 0 9.196.811 13.284 2.434 4.116 1.623 6.174 4.751 6.174 9.384h-9.462c0-1.652-.962-2.906-2.888-3.762-1.925-.856-4.264-1.343-7.019-1.46-2.99 0-5.538.353-7.64 1.061-2.074.709-3.11 1.815-3.11 3.32 0 2.361 3.435 3.542 10.306 3.542l3.732-.045ZM75.274 66.737a13.69 13.69 0 0 1-1.555 5.976 12.141 12.141 0 0 1-4.131 4.603c-1.777 1.151-3.806 1.727-6.087 1.727-5.094 0-8.944-1.196-11.55-3.586v11.2h-8.663V54.12h7.775l.621 3.231c2.607-2.596 6.546-3.85 11.817-3.762 2.28 0 4.295.56 6.042 1.682 1.777 1.121 3.17 2.656 4.176 4.604 1.007 1.947 1.525 4.131 1.555 6.55v.31Zm-16.26 6.994c1.57 0 2.903-.354 3.999-1.063 1.125-.708 1.97-1.608 2.532-2.7.592-1.121.903-2.272.933-3.453-.06-2.183-.711-4.013-1.955-5.489-1.244-1.475-3.08-2.213-5.508-2.213-1.363 0-2.592.34-3.688 1.018a7.051 7.051 0 0 0-2.487 2.7 7.566 7.566 0 0 0-.889 3.586v.089c0 2.213.651 4.028 1.955 5.444 1.303 1.387 3.006 2.08 5.108 2.08ZM94.082 53.103c3.11 0 5.908.56 8.396 1.682 2.488 1.122 4.428 2.686 5.82 4.692 1.421 1.977 2.132 4.206 2.132 6.684 0 2.45-.711 4.678-2.132 6.684-1.392 1.978-3.332 3.527-5.82 4.648-2.488 1.122-5.286 1.682-8.396 1.682-2.991 0-5.79-.56-8.396-1.682-2.607-1.15-4.695-2.715-6.264-4.692-1.54-2.007-2.31-4.22-2.31-6.64 0-2.449.77-4.662 2.31-6.64 1.57-2.006 3.657-3.57 6.264-4.692 2.606-1.15 5.405-1.726 8.396-1.726Zm0 20.495c2.132 0 3.954-.635 5.464-1.903 1.511-1.27 2.266-3.114 2.266-5.534 0-2.449-.755-4.308-2.266-5.577-1.51-1.27-3.332-1.904-5.464-1.904-1.362 0-2.68.28-3.954.842A7.155 7.155 0 0 0 87.063 62c-.8 1.122-1.2 2.509-1.2 4.161 0 1.623.4 2.996 1.2 4.117a7.48 7.48 0 0 0 3.065 2.523c1.274.531 2.591.797 3.954.797ZM121.232 58.15c2.31-2.51 5.938-4 10.884-4.471v6.905h-5.553c-2.043 0-3.435.708-4.176 2.125-.711 1.416-1.066 3.334-1.066 5.754v9.783h-8.663V54.12h7.73l.844 4.028ZM148.067 54.121h4.62v6.197h-4.62v17.928h-8.663V60.318h-4.842v-6.197h4.842v-5.223l8.663-4.117v9.34ZM170.319 64.08c.829 0 1.466-.014 1.91-.043l2.354-.045c3.377 0 6.116.458 8.219 1.373 2.103.885 3.154 2.67 3.154 5.356 0 3.482-1.54 5.784-4.62 6.905-3.08 1.092-6.664 1.638-10.751 1.638-3.998 0-7.656-.605-10.973-1.815-3.317-1.24-4.975-3.6-4.975-7.082l8.751.044c0 1.475.711 2.493 2.133 3.054 1.421.531 3.11.797 5.064.797 2.399 0 4.147-.266 5.242-.797 1.096-.531 1.644-1.357 1.644-2.479 0-1.092-.637-1.785-1.91-2.08-1.244-.325-2.399-.487-3.465-.487h-1.955c-2.754 0-5.213-.133-7.375-.398-2.161-.296-4.057-.974-5.686-2.037-1.629-1.092-2.443-2.73-2.443-4.913 0-3.276 1.599-5.415 4.798-6.419 3.198-1.003 6.885-1.505 11.061-1.505 3.969 0 7.538.605 10.707 1.815 3.169 1.21 4.753 3.556 4.753 7.038l-8.618-.044c0-1.534-.815-2.553-2.444-3.054-1.628-.502-3.095-.753-4.398-.753-4.738 0-7.108.945-7.108 2.833 0 2.007 2.311 3.04 6.931 3.099Z"/><path stroke="url(#c)" stroke-opacity=".5" stroke-width="1.082" d="M35.147 16.692c2.488.501 4.368 1.372 5.642 2.611 1.273 1.21 1.91 2.951 1.91 5.223v.178c0 2.42-.652 4.293-1.955 5.621-1.303 1.328-3.11 2.258-5.42 2.789-2.31.502-5.212.767-8.707.797h-1.866l-22.878-.044V1.11H28.66c3.435.03 6.175.738 8.218 2.125 2.044 1.387 3.066 3.35 3.066 5.887V9.3c0 1.918-.4 3.482-1.2 4.692-.8 1.21-1.999 2.11-3.598 2.7Zm-4.22-6.11c0-1.091-.252-1.873-.756-2.345-.503-.502-1.17-.812-1.999-.93-.8-.118-1.955-.177-3.465-.177H10.624v6.906l10.662.088h3.42c1.6 0 2.77-.044 3.51-.133a3.285 3.285 0 0 0 1.91-.885c.534-.502.8-1.343.8-2.523ZM26.172 27.36c1.807 0 3.154-.06 4.043-.178.888-.147 1.599-.501 2.132-1.062.533-.56.8-1.46.8-2.7 0-1.21-.267-2.08-.8-2.612-.533-.56-1.244-.9-2.133-1.018-.888-.118-2.235-.177-4.042-.177H10.624v7.658c6.427 0 11.003.03 13.728.088h1.82Z" mask="url(#d)"/><path stroke="url(#e)" stroke-opacity=".5" stroke-width="1.082" d="M54.033 33.867h-8.662V1.11h8.662v32.757Z" mask="url(#d)"/><path stroke="url(#f)" stroke-opacity=".5" stroke-width="1.082" d="M73.561 8.724c3.11 0 5.909.56 8.397 1.682 2.487 1.121 4.427 2.685 5.82 4.692 1.421 1.977 2.132 4.205 2.132 6.684 0 2.45-.711 4.677-2.133 6.684-1.392 1.977-3.332 3.527-5.82 4.648-2.487 1.121-5.286 1.682-8.395 1.682-2.992 0-5.79-.56-8.397-1.682-2.606-1.15-4.694-2.715-6.264-4.692-1.54-2.007-2.31-4.22-2.31-6.64 0-2.45.77-4.663 2.31-6.64 1.57-2.006 3.658-3.57 6.264-4.692 2.606-1.15 5.405-1.726 8.396-1.726Zm0 20.495c2.133 0 3.954-.635 5.465-1.904 1.51-1.269 2.265-3.113 2.265-5.533 0-2.45-.755-4.308-2.265-5.577-1.51-1.27-3.332-1.904-5.465-1.904-1.362 0-2.68.28-3.953.841a7.155 7.155 0 0 0-3.066 2.48c-.8 1.12-1.2 2.508-1.2 4.16 0 1.623.4 2.995 1.2 4.117a7.48 7.48 0 0 0 3.066 2.523c1.273.531 2.591.797 3.953.797Z" mask="url(#d)"/><path stroke="url(#g)" stroke-opacity=".5" stroke-width="1.082" d="M91.472 21.915c0-2.479.725-4.707 2.176-6.684 1.452-2.007 3.436-3.571 5.953-4.692 2.518-1.122 5.302-1.682 8.352-1.682 4.383 0 7.893.959 10.529 2.877 2.665 1.889 4.413 4.441 5.242 7.658h-8.707c-.356-1.446-1.17-2.627-2.444-3.541-1.244-.945-2.769-1.417-4.575-1.417-2.37 0-4.25.694-5.642 2.08-1.392 1.358-2.088 3.158-2.088 5.4 0 1.329.296 2.568.888 3.72.592 1.12 1.451 2.035 2.577 2.744 1.155.678 2.517 1.018 4.087 1.018 1.866 0 3.435-.458 4.709-1.373 1.303-.944 2.117-2.124 2.443-3.54h8.707c-.296 1.888-1.169 3.644-2.621 5.267-1.451 1.593-3.331 2.862-5.642 3.807-2.28.944-4.768 1.416-7.463 1.416-2.991 0-5.745-.56-8.263-1.682-2.517-1.15-4.516-2.715-5.997-4.692-1.481-2.007-2.221-4.235-2.221-6.684Z" mask="url(#d)"/><path stroke="url(#h)" stroke-opacity=".5" stroke-width="1.082" d="m143.126 20.543 13.461 13.324H146.28l-11.906-11.51v11.51h-8.663V1.11h8.663v17.706l10.174-9.074h10.484l-11.906 10.8Z" mask="url(#d)"/><path stroke="url(#i)" stroke-opacity=".5" stroke-width="1.082" d="M153.683 21.915c0-2.479.726-4.707 2.177-6.684 1.451-2.007 3.436-3.571 5.953-4.692 2.518-1.122 5.301-1.682 8.352-1.682 4.383 0 7.893.959 10.529 2.877 2.665 1.889 4.412 4.441 5.242 7.658h-8.708c-.355-1.446-1.169-2.627-2.443-3.541-1.244-.945-2.769-1.417-4.576-1.417-2.369 0-4.25.694-5.642 2.08-1.392 1.358-2.088 3.158-2.088 5.4 0 1.329.297 2.568.889 3.72.592 1.12 1.451 2.035 2.577 2.744 1.155.678 2.517 1.018 4.087 1.018 1.866 0 3.435-.458 4.709-1.373 1.303-.944 2.117-2.124 2.443-3.54h8.707c-.296 1.888-1.17 3.644-2.621 5.267-1.451 1.593-3.332 2.862-5.642 3.807-2.28.944-4.768 1.416-7.463 1.416-2.991 0-5.746-.56-8.263-1.682-2.517-1.15-4.517-2.715-5.997-4.692-1.481-2.007-2.222-4.235-2.222-6.684Z" mask="url(#d)"/><path stroke="url(#j)" stroke-opacity=".5" stroke-width="1.082" d="M207.115 8.945c3.287 0 5.982 1.18 8.085 3.541 2.132 2.361 3.199 6.168 3.199 11.42v9.96h-8.663V24.04c0-1.89-.133-3.483-.4-4.781-.237-1.299-.814-2.39-1.733-3.276-.918-.885-2.31-1.328-4.175-1.328-1.955 0-3.421.458-4.399 1.373-.947.914-1.554 2.036-1.821 3.364-.266 1.298-.4 2.877-.4 4.736v9.739h-8.663V1.11h8.663v11.598c2.251-2.509 5.687-3.763 10.307-3.763Z" mask="url(#d)"/><path stroke="url(#k)" stroke-opacity=".5" stroke-width="1.082" d="M236.844 8.68c4.087 0 7.745.708 10.973 2.124 3.228 1.417 4.842 3.91 4.842 7.481v15.582h-8.085l-.711-3.674v-.222c-.681 1.358-2.251 2.42-4.709 3.187-2.428.768-5.079 1.151-7.952 1.151-2.31 0-4.649-.472-7.019-1.416-2.369-.974-3.554-3.055-3.554-6.242 0-3.04 1.007-5.046 3.021-6.02 2.044-.974 4.235-1.46 6.575-1.46 4.531 0 7.671-.03 9.418-.09 1.747-.088 2.888-.25 3.421-.486.562-.236.859-.664.888-1.284v-.487c-.029-1.033-.77-1.83-2.221-2.39-1.422-.59-3.065-.885-4.931-.885-2.014 0-3.732.34-5.153 1.018-1.392.649-2.088 1.667-2.088 3.054h-8.663c0-2.272.859-4.072 2.576-5.4 1.748-1.328 3.821-2.243 6.22-2.745a33.41 33.41 0 0 1 7.152-.796Zm7.064 13.146c-1.422.65-3.599.974-6.531.974-1.984 0-3.539.074-4.664.221-1.096.148-1.911.414-2.444.797-.503.354-.77.886-.799 1.594.089.974.592 1.711 1.51 2.213.948.502 2.532.753 4.754.753 2.932 0 5.02-.635 6.263-1.904 1.274-1.269 1.911-2.803 1.911-4.603v-.045Z" mask="url(#d)"/><path stroke="url(#l)" stroke-opacity=".5" stroke-width="1.082" d="M264.226 1.11h-8.663v6.02h8.663V1.11Zm0 32.757h-8.663V8.414h8.663v25.453Z" mask="url(#d)"/><path stroke="url(#m)" stroke-opacity=".5" stroke-width="1.082" d="M286.25 8.945c3.495 0 6.22 1.151 8.174 3.453 1.955 2.302 2.932 6.138 2.932 11.509v9.96h-8.662V24.04c0-1.89-.134-3.483-.4-4.781-.237-1.299-.815-2.39-1.733-3.276-.918-.885-2.31-1.328-4.176-1.328-1.954 0-3.42.443-4.398 1.328-.947.856-1.555 1.948-1.821 3.276-.267 1.298-.4 2.921-.4 4.87v9.738h-8.663V9.742h8.663v3.098c2.31-2.597 5.805-3.895 10.484-3.895Z" mask="url(#d)"/><path stroke="url(#n)" stroke-opacity=".5" stroke-width="1.082" d="M24.485 58.99c3.11 0 5.805.192 8.085.576 2.28.383 4.176 1.21 5.686 2.479 1.54 1.269 2.31 3.142 2.31 5.621 0 4.545-1.999 7.614-5.997 9.208-3.998 1.593-8.485 2.39-13.46 2.39-4.887 0-9.463-.812-13.728-2.435C3.117 75.177.984 72.05.984 67.445l9.551-.088c0 1.623.622 2.832 1.866 3.63a10.42 10.42 0 0 0 4.132 1.504c1.51.177 3.14.266 4.886.266 2.666 0 4.961-.384 6.886-1.151 1.925-.767 2.903-2.007 2.932-3.718v-.045c0-1.269-.962-2.08-2.887-2.434-1.896-.384-4.191-.576-6.886-.576H18.71c-3.554 0-6.56-.177-9.019-.53-2.458-.384-4.531-1.24-6.22-2.568C1.814 60.377.985 58.34.985 55.626c0-7.407 6.708-11.11 20.124-11.11 4.769 0 9.196.811 13.284 2.434 4.116 1.623 6.174 4.751 6.174 9.384h-9.462c0-1.652-.962-2.906-2.888-3.762-1.925-.856-4.264-1.343-7.019-1.46-2.99 0-5.538.353-7.64 1.061-2.074.709-3.11 1.815-3.11 3.32 0 2.361 3.435 3.542 10.306 3.542l3.732-.045Z" mask="url(#d)"/><path stroke="url(#o)" stroke-opacity=".5" stroke-width="1.082" d="M75.274 66.737a13.69 13.69 0 0 1-1.555 5.976 12.141 12.141 0 0 1-4.131 4.603c-1.777 1.151-3.806 1.727-6.087 1.727-5.094 0-8.944-1.196-11.55-3.586v11.2h-8.663V54.12h7.775l.621 3.231c2.607-2.596 6.546-3.85 11.817-3.762 2.28 0 4.295.56 6.042 1.682 1.777 1.121 3.17 2.656 4.176 4.604 1.007 1.947 1.525 4.131 1.555 6.55v.31Zm-16.26 6.994c1.57 0 2.903-.354 3.999-1.063 1.125-.708 1.97-1.608 2.532-2.7.592-1.121.903-2.272.933-3.453-.06-2.183-.711-4.013-1.955-5.489-1.244-1.475-3.08-2.213-5.508-2.213-1.363 0-2.592.34-3.688 1.018a7.051 7.051 0 0 0-2.487 2.7 7.566 7.566 0 0 0-.889 3.586v.089c0 2.213.651 4.028 1.955 5.444 1.303 1.387 3.006 2.08 5.108 2.08Z" mask="url(#d)"/><path stroke="url(#p)" stroke-opacity=".5" stroke-width="1.082" d="M94.082 53.103c3.11 0 5.908.56 8.396 1.682 2.488 1.122 4.428 2.686 5.82 4.692 1.421 1.977 2.132 4.206 2.132 6.684 0 2.45-.711 4.678-2.132 6.684-1.392 1.978-3.332 3.527-5.82 4.648-2.488 1.122-5.286 1.682-8.396 1.682-2.991 0-5.79-.56-8.396-1.682-2.607-1.15-4.695-2.715-6.264-4.692-1.54-2.007-2.31-4.22-2.31-6.64 0-2.449.77-4.662 2.31-6.64 1.57-2.006 3.657-3.57 6.264-4.692 2.606-1.15 5.405-1.726 8.396-1.726Zm0 20.495c2.132 0 3.954-.635 5.464-1.903 1.511-1.27 2.266-3.114 2.266-5.534 0-2.449-.755-4.308-2.266-5.577-1.51-1.27-3.332-1.904-5.464-1.904-1.362 0-2.68.28-3.954.842A7.155 7.155 0 0 0 87.063 62c-.8 1.122-1.2 2.509-1.2 4.161 0 1.623.4 2.996 1.2 4.117a7.48 7.48 0 0 0 3.065 2.523c1.274.531 2.591.797 3.954.797Z" mask="url(#d)"/><path stroke="url(#q)" stroke-opacity=".5" stroke-width="1.082" d="M121.232 58.15c2.31-2.51 5.938-4 10.884-4.471v6.905h-5.553c-2.043 0-3.435.708-4.176 2.125-.711 1.416-1.066 3.334-1.066 5.754v9.783h-8.663V54.12h7.73l.844 4.028Z" mask="url(#d)"/><path stroke="url(#r)" stroke-opacity=".5" stroke-width="1.082" d="M148.067 54.121h4.62v6.197h-4.62v17.928h-8.663V60.318h-4.842v-6.197h4.842v-5.223l8.663-4.117v9.34Z" mask="url(#d)"/><path stroke="url(#s)" stroke-opacity=".5" stroke-width="1.082" d="M170.319 64.08c.829 0 1.466-.014 1.91-.043l2.354-.045c3.377 0 6.116.458 8.219 1.373 2.103.885 3.154 2.67 3.154 5.356 0 3.482-1.54 5.784-4.62 6.905-3.08 1.092-6.664 1.638-10.751 1.638-3.998 0-7.656-.605-10.973-1.815-3.317-1.24-4.975-3.6-4.975-7.082l8.751.044c0 1.475.711 2.493 2.133 3.054 1.421.531 3.11.797 5.064.797 2.399 0 4.147-.266 5.242-.797 1.096-.531 1.644-1.357 1.644-2.479 0-1.092-.637-1.785-1.91-2.08-1.244-.325-2.399-.487-3.465-.487h-1.955c-2.754 0-5.213-.133-7.375-.398-2.161-.296-4.057-.974-5.686-2.037-1.629-1.092-2.443-2.73-2.443-4.913 0-3.276 1.599-5.415 4.798-6.419 3.198-1.003 6.885-1.505 11.061-1.505 3.969 0 7.538.605 10.707 1.815 3.169 1.21 4.753 3.556 4.753 7.038l-8.618-.044c0-1.534-.815-2.553-2.444-3.054-1.628-.502-3.095-.753-4.398-.753-4.738 0-7.108.945-7.108 2.833 0 2.007 2.311 3.04 6.931 3.099Z" mask="url(#d)"/><path fill="#fff" d="M319.817 7.426c.275-.659 1.211-.659 1.486 0l2.799 6.705a.805.805 0 0 0 .678.491l7.265.58c.714.057 1.003.945.459 1.409l-5.535 4.724a.8.8 0 0 0-.259.795l1.691 7.064c.166.694-.591 1.242-1.202.87l-6.22-3.785a.807.807 0 0 0-.839 0l-6.219 3.785c-.611.372-1.368-.177-1.202-.87l1.691-7.064a.799.799 0 0 0-.26-.795l-5.535-4.724c-.543-.464-.254-1.352.46-1.409l7.264-.58a.805.805 0 0 0 .679-.491l2.799-6.705Z"/><path stroke="url(#t)" stroke-opacity=".5" stroke-width=".541" d="M321.553 7.322c-.368-.88-1.618-.88-1.986 0l-2.799 6.705a.532.532 0 0 1-.45.325l-7.265.58c-.952.077-1.341 1.263-.613 1.885l5.535 4.724c.152.13.218.333.171.526l-1.691 7.064c-.222.93.792 1.66 1.607 1.164l6.219-3.785a.538.538 0 0 1 .558 0l6.219 3.785c.814.496 1.829-.234 1.606-1.164l-1.691-7.064a.53.53 0 0 1 .172-.526l5.535-4.724c.728-.622.339-1.808-.613-1.884l-7.265-.58a.535.535 0 0 1-.451-.326l-2.798-6.705Z"/><defs><linearGradient id="a" x1="213.835" x2="230.06" y1="46.137" y2="114.099" gradientUnits="userSpaceOnUse"><stop stop-color="#3D405C" stop-opacity=".67"/><stop offset="1" stop-color="#3D405C" stop-opacity="0"/></linearGradient><linearGradient id="b" x1="233.455" x2="236.798" y1="59.174" y2="83.842" gradientUnits="userSpaceOnUse"><stop stop-color="#3D405C" stop-opacity=".67"/><stop offset="1" stop-color="#3D405C" stop-opacity="0"/></linearGradient><linearGradient id="c" x1="47.852" x2="83.487" y1="2.693" y2="144.646" gradientUnits="userSpaceOnUse"><stop stop-color="#3D405C" stop-opacity=".67"/><stop offset="1" stop-color="#3D405C" stop-opacity="0"/></linearGradient><linearGradient id="e" x1="47.852" x2="83.487" y1="2.693" y2="144.646" gradientUnits="userSpaceOnUse"><stop stop-color="#3D405C" stop-opacity=".67"/><stop offset="1" stop-color="#3D405C" stop-opacity="0"/></linearGradient><linearGradient id="f" x1="47.852" x2="83.487" y1="2.693" y2="144.646" gradientUnits="userSpaceOnUse"><stop stop-color="#3D405C" stop-opacity=".67"/><stop offset="1" stop-color="#3D405C" stop-opacity="0"/></linearGradient><linearGradient id="g" x1="47.852" x2="83.487" y1="2.693" y2="144.646" gradientUnits="userSpaceOnUse"><stop stop-color="#3D405C" stop-opacity=".67"/><stop offset="1" stop-color="#3D405C" stop-opacity="0"/></linearGradient><linearGradient id="h" x1="47.852" x2="83.487" y1="2.693" y2="144.646" gradientUnits="userSpaceOnUse"><stop stop-color="#3D405C" stop-opacity=".67"/><stop offset="1" stop-color="#3D405C" stop-opacity="0"/></linearGradient><linearGradient id="i" x1="47.852" x2="83.487" y1="2.693" y2="144.646" gradientUnits="userSpaceOnUse"><stop stop-color="#3D405C" stop-opacity=".67"/><stop offset="1" stop-color="#3D405C" stop-opacity="0"/></linearGradient><linearGradient id="j" x1="47.852" x2="83.487" y1="2.693" y2="144.646" gradientUnits="userSpaceOnUse"><stop stop-color="#3D405C" stop-opacity=".67"/><stop offset="1" stop-color="#3D405C" stop-opacity="0"/></linearGradient><linearGradient id="k" x1="47.852" x2="83.487" y1="2.693" y2="144.646" gradientUnits="userSpaceOnUse"><stop stop-color="#3D405C" stop-opacity=".67"/><stop offset="1" stop-color="#3D405C" stop-opacity="0"/></linearGradient><linearGradient id="l" x1="47.852" x2="83.487" y1="2.693" y2="144.646" gradientUnits="userSpaceOnUse"><stop stop-color="#3D405C" stop-opacity=".67"/><stop offset="1" stop-color="#3D405C" stop-opacity="0"/></linearGradient><linearGradient id="m" x1="47.852" x2="83.487" y1="2.693" y2="144.646" gradientUnits="userSpaceOnUse"><stop stop-color="#3D405C" stop-opacity=".67"/><stop offset="1" stop-color="#3D405C" stop-opacity="0"/></linearGradient><linearGradient id="n" x1="47.852" x2="83.487" y1="2.693" y2="144.646" gradientUnits="userSpaceOnUse"><stop stop-color="#3D405C" stop-opacity=".67"/><stop offset="1" stop-color="#3D405C" stop-opacity="0"/></linearGradient><linearGradient id="o" x1="47.852" x2="83.487" y1="2.693" y2="144.646" gradientUnits="userSpaceOnUse"><stop stop-color="#3D405C" stop-opacity=".67"/><stop offset="1" stop-color="#3D405C" stop-opacity="0"/></linearGradient><linearGradient id="p" x1="47.852" x2="83.487" y1="2.693" y2="144.646" gradientUnits="userSpaceOnUse"><stop stop-color="#3D405C" stop-opacity=".67"/><stop offset="1" stop-color="#3D405C" stop-opacity="0"/></linearGradient><linearGradient id="q" x1="47.852" x2="83.487" y1="2.693" y2="144.646" gradientUnits="userSpaceOnUse"><stop stop-color="#3D405C" stop-opacity=".67"/><stop offset="1" stop-color="#3D405C" stop-opacity="0"/></linearGradient><linearGradient id="r" x1="47.852" x2="83.487" y1="2.693" y2="144.646" gradientUnits="userSpaceOnUse"><stop stop-color="#3D405C" stop-opacity=".67"/><stop offset="1" stop-color="#3D405C" stop-opacity="0"/></linearGradient><linearGradient id="s" x1="47.852" x2="83.487" y1="2.693" y2="144.646" gradientUnits="userSpaceOnUse"><stop stop-color="#3D405C" stop-opacity=".67"/><stop offset="1" stop-color="#3D405C" stop-opacity="0"/></linearGradient><linearGradient id="t" x1="312.2" x2="332.343" y1="7.362" y2="31.72" gradientUnits="userSpaceOnUse"><stop stop-color="#3D405C" stop-opacity=".67"/><stop offset="1" stop-color="#3D405C" stop-opacity="0"/></linearGradient></defs></svg>