<svg xmlns="http://www.w3.org/2000/svg" width="356" height="92" fill="none"><g clip-path="url(#a)"><mask id="b" width="357" height="92" x="-1" y="0" maskUnits="userSpaceOnUse" style="mask-type:luminance"><path fill="#fff" d="M355.273 0H-.004v92h355.277V0Z"/></mask><g mask="url(#b)"><rect width="148" height="45" x="207" y="47" fill="#6FA8FF" rx="15"/><mask id="c" width="121" height="17" x="222.354" y="61.021" fill="#000" maskUnits="userSpaceOnUse"><path fill="#fff" d="M222.354 61.021h121v17h-121z"/><path d="m223.354 77 2.682-13.802h8.478l-.315 1.617h-6.704l-.887 4.594h6.092l-.315 1.617h-6.093L225.129 77h-1.775ZM239.006 77.177c-3.352 0-5.126-2.129-4.397-5.895l.454-2.366c.729-3.766 2.918-5.895 6.487-5.895 3.371 0 5.126 2.13 4.397 5.895l-.454 2.366c-.729 3.766-2.918 5.895-6.487 5.895Zm-2.622-5.895c-.493 2.583.197 4.22 2.839 4.22 2.662 0 4.003-1.637 4.496-4.22l.453-2.366c.493-2.583-.177-4.22-2.839-4.22-2.642 0-4.003 1.637-4.496 4.22l-.453 2.366ZM251.78 77.177c-2.977 0-4.791-1.873-4.18-5.047l1.736-8.932h1.774l-1.735 8.893c-.394 2.05.237 3.45 2.603 3.45 2.405 0 3.588-1.4 3.982-3.45l1.735-8.893h1.775l-1.735 8.932c-.611 3.115-2.169 5.047-5.955 5.047ZM259.851 77l2.682-13.802h3.332l2.74 13.408 2.603-13.408h1.735L270.262 77h-3.451l-2.642-13.309L261.586 77h-1.735ZM278.218 75.324c2.997 0 4.2-1.853 4.713-4.436l.315-1.578c.513-2.582-.158-4.436-2.997-4.436h-2.642l-2.031 10.45h2.642ZM273.506 77l2.681-13.802h4.378c3.154 0 5.205 2.346 4.456 6.112l-.316 1.578c-.789 3.904-2.859 6.29-6.822 6.112h-4.377ZM294.138 77l-.375-3.569h-5.757L286.271 77h-2.031l6.98-13.802h3.194L295.991 77h-1.853Zm-5.363-5.146h4.831l-.848-8.163-3.983 8.163ZM299.263 77l2.366-12.165h-4.062l.316-1.637h9.898l-.316 1.637h-4.061L301.038 77h-1.775ZM306.485 77l.315-1.636h2.879l2.05-10.53h-2.878l.315-1.636h7.532l-.316 1.637h-2.878l-2.051 10.529h2.879L314.016 77h-7.531ZM321.4 77.177c-3.352 0-5.127-2.129-4.397-5.895l.453-2.366c.73-3.766 2.918-5.895 6.487-5.895 3.372 0 5.127 2.13 4.397 5.895l-.453 2.366c-.73 3.766-2.919 5.895-6.487 5.895Zm-2.623-5.895c-.493 2.583.197 4.22 2.84 4.22 2.661 0 4.002-1.637 4.495-4.22l.453-2.366c.493-2.583-.177-4.22-2.839-4.22-2.642 0-4.002 1.637-4.495 4.22l-.454 2.366ZM329.244 77l2.682-13.802h3.332l2.741 13.408 2.602-13.408h1.735L339.655 77h-3.45l-2.643-13.309L330.98 77h-1.736Z"/></mask><path fill="#000" d="m223.354 77 2.682-13.802h8.478l-.315 1.617h-6.704l-.887 4.594h6.092l-.315 1.617h-6.093L225.129 77h-1.775ZM239.006 77.177c-3.352 0-5.126-2.129-4.397-5.895l.454-2.366c.729-3.766 2.918-5.895 6.487-5.895 3.371 0 5.126 2.13 4.397 5.895l-.454 2.366c-.729 3.766-2.918 5.895-6.487 5.895Zm-2.622-5.895c-.493 2.583.197 4.22 2.839 4.22 2.662 0 4.003-1.637 4.496-4.22l.453-2.366c.493-2.583-.177-4.22-2.839-4.22-2.642 0-4.003 1.637-4.496 4.22l-.453 2.366ZM251.78 77.177c-2.977 0-4.791-1.873-4.18-5.047l1.736-8.932h1.774l-1.735 8.893c-.394 2.05.237 3.45 2.603 3.45 2.405 0 3.588-1.4 3.982-3.45l1.735-8.893h1.775l-1.735 8.932c-.611 3.115-2.169 5.047-5.955 5.047ZM259.851 77l2.682-13.802h3.332l2.74 13.408 2.603-13.408h1.735L270.262 77h-3.451l-2.642-13.309L261.586 77h-1.735ZM278.218 75.324c2.997 0 4.2-1.853 4.713-4.436l.315-1.578c.513-2.582-.158-4.436-2.997-4.436h-2.642l-2.031 10.45h2.642ZM273.506 77l2.681-13.802h4.378c3.154 0 5.205 2.346 4.456 6.112l-.316 1.578c-.789 3.904-2.859 6.29-6.822 6.112h-4.377ZM294.138 77l-.375-3.569h-5.757L286.271 77h-2.031l6.98-13.802h3.194L295.991 77h-1.853Zm-5.363-5.146h4.831l-.848-8.163-3.983 8.163ZM299.263 77l2.366-12.165h-4.062l.316-1.637h9.898l-.316 1.637h-4.061L301.038 77h-1.775ZM306.485 77l.315-1.636h2.879l2.05-10.53h-2.878l.315-1.636h7.532l-.316 1.637h-2.878l-2.051 10.529h2.879L314.016 77h-7.531ZM321.4 77.177c-3.352 0-5.127-2.129-4.397-5.895l.453-2.366c.73-3.766 2.918-5.895 6.487-5.895 3.372 0 5.127 2.13 4.397 5.895l-.453 2.366c-.73 3.766-2.919 5.895-6.487 5.895Zm-2.623-5.895c-.493 2.583.197 4.22 2.84 4.22 2.661 0 4.002-1.637 4.495-4.22l.453-2.366c.493-2.583-.177-4.22-2.839-4.22-2.642 0-4.002 1.637-4.495 4.22l-.454 2.366ZM329.244 77l2.682-13.802h3.332l2.741 13.408 2.602-13.408h1.735L339.655 77h-3.45l-2.643-13.309L330.98 77h-1.736Z"/><path stroke="#000" stroke-width="1.2" d="m223.354 77 2.682-13.802h8.478l-.315 1.617h-6.704l-.887 4.594h6.092l-.315 1.617h-6.093L225.129 77h-1.775ZM239.006 77.177c-3.352 0-5.126-2.129-4.397-5.895l.454-2.366c.729-3.766 2.918-5.895 6.487-5.895 3.371 0 5.126 2.13 4.397 5.895l-.454 2.366c-.729 3.766-2.918 5.895-6.487 5.895Zm-2.622-5.895c-.493 2.583.197 4.22 2.839 4.22 2.662 0 4.003-1.637 4.496-4.22l.453-2.366c.493-2.583-.177-4.22-2.839-4.22-2.642 0-4.003 1.637-4.496 4.22l-.453 2.366ZM251.78 77.177c-2.977 0-4.791-1.873-4.18-5.047l1.736-8.932h1.774l-1.735 8.893c-.394 2.05.237 3.45 2.603 3.45 2.405 0 3.588-1.4 3.982-3.45l1.735-8.893h1.775l-1.735 8.932c-.611 3.115-2.169 5.047-5.955 5.047ZM259.851 77l2.682-13.802h3.332l2.74 13.408 2.603-13.408h1.735L270.262 77h-3.451l-2.642-13.309L261.586 77h-1.735ZM278.218 75.324c2.997 0 4.2-1.853 4.713-4.436l.315-1.578c.513-2.582-.158-4.436-2.997-4.436h-2.642l-2.031 10.45h2.642ZM273.506 77l2.681-13.802h4.378c3.154 0 5.205 2.346 4.456 6.112l-.316 1.578c-.789 3.904-2.859 6.29-6.822 6.112h-4.377ZM294.138 77l-.375-3.569h-5.757L286.271 77h-2.031l6.98-13.802h3.194L295.991 77h-1.853Zm-5.363-5.146h4.831l-.848-8.163-3.983 8.163ZM299.263 77l2.366-12.165h-4.062l.316-1.637h9.898l-.316 1.637h-4.061L301.038 77h-1.775ZM306.485 77l.315-1.636h2.879l2.05-10.53h-2.878l.315-1.636h7.532l-.316 1.637h-2.878l-2.051 10.529h2.879L314.016 77h-7.531ZM321.4 77.177c-3.352 0-5.127-2.129-4.397-5.895l.453-2.366c.73-3.766 2.918-5.895 6.487-5.895 3.372 0 5.127 2.13 4.397 5.895l-.453 2.366c-.73 3.766-2.919 5.895-6.487 5.895Zm-2.623-5.895c-.493 2.583.197 4.22 2.84 4.22 2.661 0 4.002-1.637 4.495-4.22l.453-2.366c.493-2.583-.177-4.22-2.839-4.22-2.642 0-4.002 1.637-4.495 4.22l-.454 2.366ZM329.244 77l2.682-13.802h3.332l2.741 13.408 2.602-13.408h1.735L339.655 77h-3.45l-2.643-13.309L330.98 77h-1.736Z" mask="url(#c)"/><path fill="#fff" d="M36.516 16.756c2.659.539 4.672 1.477 6.033 2.81 1.361 1.3 2.043 3.173 2.043 5.618v.19c0 2.603-.696 4.618-2.09 6.047-1.392 1.428-3.324 2.427-5.793 3-2.47.538-5.574.825-9.31.856h-1.996L.945 35.23V0h28.637c3.671.03 6.6.792 8.785 2.285 2.186 1.494 3.277 3.603 3.277 6.332v.19c0 2.061-.43 3.744-1.284 5.044-.855 1.3-2.138 2.269-3.847 2.905h.003Zm-4.512-6.568c0-1.175-.27-2.015-.808-2.522-.537-.539-1.25-.874-2.138-1-.854-.125-2.09-.189-3.705-.189H10.302v7.425l11.4.095h3.657c1.71 0 2.96-.047 3.753-.142a3.515 3.515 0 0 0 2.044-.952c.57-.538.854-1.442.854-2.712l-.006-.003Zm-5.08 18.043c1.931 0 3.37-.064 4.323-.19.949-.159 1.709-.538 2.28-1.14.57-.603.855-1.572.855-2.906s-.284-2.238-.855-2.81c-.571-.602-1.331-.968-2.28-1.093-.95-.126-2.392-.19-4.324-.19H10.302v8.234c6.87 0 11.76.03 14.676.095h1.945ZM56.719 35.23h-9.262V0h9.262v35.23ZM77.583 8.184c3.324 0 6.317.602 8.975 1.808 2.658 1.205 4.732 2.888 6.222 5.044 1.52 2.127 2.28 4.524 2.28 7.189 0 2.664-.76 5.031-2.28 7.188-1.49 2.126-3.564 3.792-6.222 4.997-2.659 1.206-5.651 1.808-8.975 1.808-3.323 0-6.191-.602-8.974-1.808-2.787-1.239-5.02-2.918-6.698-5.045-1.645-2.156-2.47-4.537-2.47-7.14 0-2.604.825-5.015 2.47-7.141 1.678-2.157 3.91-3.84 6.698-5.045 2.786-1.24 5.779-1.855 8.974-1.855Zm0 22.041c2.28 0 4.226-.684 5.84-2.048 1.615-1.364 2.422-3.349 2.422-5.952 0-2.604-.807-4.636-2.421-6-1.615-1.365-3.564-2.049-5.84-2.049-1.456 0-2.865.302-4.226.905a7.657 7.657 0 0 0-3.277 2.664c-.854 1.206-1.283 2.699-1.283 4.476 0 1.778.429 3.22 1.283 4.429a8.018 8.018 0 0 0 3.277 2.712c1.36.572 2.77.857 4.225.857v.006ZM96.733 22.377c0-2.665.777-5.062 2.327-7.188 1.551-2.157 3.672-3.84 6.364-5.045 2.692-1.205 5.668-1.808 8.928-1.808 4.684 0 8.437 1.033 11.254 3.095 2.851 2.031 4.719 4.777 5.604 8.234h-9.309c-.379-1.554-1.25-2.824-2.611-3.81-1.331-1.015-2.959-1.523-4.891-1.523-2.534 0-4.543.745-6.033 2.238-1.489 1.46-2.233 3.396-2.233 5.807 0 1.429.318 2.763.95 3.999.631 1.205 1.55 2.19 2.752 2.952 1.237.732 2.692 1.094 4.371 1.094 1.997 0 3.672-.491 5.033-1.477 1.392-1.015 2.263-2.285 2.611-3.809h9.309c-.318 2.032-1.25 3.921-2.803 5.665-1.551 1.713-3.564 3.078-6.033 4.093-2.439 1.016-5.097 1.524-7.978 1.524-3.199 0-6.141-.602-8.833-1.808-2.692-1.24-4.827-2.918-6.411-5.045-1.584-2.157-2.374-4.554-2.374-7.188h.006ZM151.958 20.9l14.389 14.33h-11.018L142.601 22.85V35.23h-9.261V0h9.261v19.042l10.877-9.758h11.207l-12.727 11.617Z"/><path fill="#fff" d="M163.367 22.318c0-2.664.776-5.061 2.327-7.188 1.55-2.157 3.671-3.84 6.363-5.045 2.693-1.205 5.668-1.808 8.928-1.808 4.685 0 8.438 1.033 11.255 3.095 2.85 2.031 4.718 4.777 5.603 8.234h-9.309c-.378-1.554-1.25-2.823-2.611-3.809-1.331-1.016-2.959-1.523-4.891-1.523-2.533 0-4.543.745-6.033 2.238-1.489 1.459-2.232 3.396-2.232 5.806a8.66 8.66 0 0 0 .949 4c.632 1.204 1.55 2.19 2.756 2.951 1.236.732 2.692 1.094 4.371 1.094 1.993 0 3.672-.49 5.033-1.476 1.391-1.016 2.263-2.285 2.611-3.81h9.309c-.318 2.032-1.25 3.922-2.804 5.665-1.55 1.714-3.563 3.078-6.032 4.094-2.439 1.016-5.097 1.523-7.979 1.523-3.198 0-6.14-.602-8.832-1.808-2.692-1.239-4.827-2.918-6.411-5.045-1.584-2.156-2.375-4.553-2.375-7.188h.004ZM220.354 8.427c3.513 0 6.394 1.27 8.643 3.81 2.28 2.539 3.419 6.632 3.419 12.283v10.713h-9.262V24.666c0-2.032-.142-3.745-.429-5.143-.253-1.395-.871-2.57-1.851-3.522-.983-.951-2.469-1.428-4.465-1.428-1.997 0-3.658.49-4.702 1.476-1.013.985-1.662 2.19-1.946 3.62-.283 1.394-.429 3.094-.429 5.092v10.472h-9.261V0h9.261v12.473c2.405-2.698 6.08-4.046 11.019-4.046h.003ZM252.147 8.142c4.371 0 8.279.762 11.731 2.286 3.452 1.523 5.178 4.205 5.178 8.044V35.23h-8.644l-.76-3.951v-.237c-.729 1.459-2.405 2.603-5.033 3.426-2.597.826-5.431 1.24-8.501 1.24-2.469 0-4.972-.509-7.506-1.525-2.533-1.046-3.8-3.284-3.8-6.714 0-3.43 1.078-5.427 3.23-6.473 2.185-1.047 4.526-1.571 7.029-1.571 4.843 0 8.201-.03 10.069-.095 1.868-.095 3.087-.271 3.658-.525.601-.254.918-.714.949-1.381v-.525c-.031-1.11-.824-1.967-2.375-2.57-1.52-.633-3.276-.951-5.272-.951-2.152 0-3.989.365-5.509 1.093-1.49.698-2.233 1.795-2.233 3.284h-9.262c0-2.444.919-4.38 2.753-5.806 1.868-1.43 4.084-2.411 6.647-2.953a35.469 35.469 0 0 1 7.647-.856l.004.003Zm7.553 14.14c-1.52.697-3.848 1.046-6.982 1.046-2.121 0-3.783.077-4.986.236-1.172.16-2.043.444-2.611.857-.537.38-.824.952-.854 1.713.094 1.047.632 1.842 1.614 2.38 1.014.539 2.706.81 5.084.81 3.134 0 5.367-.684 6.694-2.049 1.362-1.364 2.044-3.013 2.044-4.95v-.047l-.003.003ZM281.43 0h-9.262v6.474h9.262V0Zm0 35.23h-9.262V7.855h9.262V35.23ZM304.961 8.428c3.736 0 6.649 1.239 8.739 3.714 2.091 2.475 3.136 6.602 3.136 12.379v10.712h-9.264V24.666c0-2.031-.142-3.744-.426-5.143-.252-1.395-.871-2.57-1.851-3.521-.983-.952-2.469-1.429-4.462-1.429-2.09 0-3.656.477-4.704 1.429-1.013.92-1.662 2.096-1.946 3.521-.283 1.395-.425 3.142-.425 5.238v10.472h-9.262V9.284h9.262v3.332c2.469-2.793 6.205-4.188 11.206-4.188h-.003ZM25.12 62.252c3.323 0 6.204.206 8.643.62 2.439.412 4.466 1.3 6.08 2.664 1.645 1.364 2.47 3.379 2.47 6.047 0 4.886-2.139 8.187-6.412 9.904-4.273 1.713-9.072 2.57-14.389 2.57-5.316 0-10.116-.874-14.676-2.618-4.56-1.778-6.84-5.143-6.84-10.093l10.211-.095c0 1.747.665 3.047 1.996 3.904a11.117 11.117 0 0 0 4.418 1.618c1.615.19 3.358.285 5.226.285 2.85 0 5.303-.413 7.36-1.24 2.057-.825 3.104-2.156 3.134-3.998v-.047c0-1.365-1.03-2.238-3.087-2.618-2.027-.413-4.479-.62-7.36-.62h-2.945c-3.8 0-7.013-.189-9.64-.572-2.628-.413-4.844-1.334-6.648-2.762C.888 63.74.003 61.55.003 58.632c0-7.967 7.17-11.948 21.513-11.948 5.097 0 9.829.873 14.2 2.617 4.4 1.747 6.6 5.11 6.6 10.093H32.199c0-1.777-1.03-3.125-3.087-4.046-2.057-.921-4.56-1.442-7.505-1.571-3.199 0-5.921.38-8.167 1.144-2.216.762-3.324 1.95-3.324 3.572 0 2.54 3.671 3.81 11.018 3.81l3.989-.048-.003-.004ZM79.434 70.58a14.811 14.811 0 0 1-1.661 6.427 13.003 13.003 0 0 1-4.418 4.95c-1.899 1.24-4.07 1.856-6.506 1.856-5.445 0-9.562-1.287-12.349-3.857V92h-9.262V57.01h8.313l.665 3.474c2.787-2.793 7-4.14 12.633-4.046 2.439 0 4.59.603 6.458 1.808 1.899 1.206 3.388 2.858 4.466 4.95 1.077 2.096 1.631 4.442 1.662 7.046v.339Zm-17.381 7.524c1.679 0 3.104-.379 4.276-1.144 1.202-.762 2.104-1.73 2.705-2.905.632-1.206.966-2.445.997-3.715-.064-2.35-.76-4.317-2.09-5.904-1.332-1.588-3.294-2.38-5.892-2.38-1.455 0-2.77.365-3.941 1.093a7.58 7.58 0 0 0-2.659 2.905 8.196 8.196 0 0 0-.949 3.857v.094c0 2.38.696 4.33 2.09 5.855 1.393 1.493 3.213 2.237 5.463 2.237v.007ZM99.505 55.924c3.324 0 6.317.602 8.975 1.808 2.658 1.205 4.732 2.888 6.222 5.045 1.52 2.126 2.28 4.523 2.28 7.188 0 2.664-.76 5.031-2.28 7.188-1.49 2.126-3.564 3.792-6.222 4.997-2.658 1.206-5.651 1.808-8.975 1.808-3.323 0-6.19-.602-8.974-1.808-2.787-1.239-5.02-2.918-6.695-5.044-1.645-2.157-2.469-4.538-2.469-7.141 0-2.604.824-5.015 2.47-7.14 1.678-2.158 3.91-3.84 6.694-5.046 2.786-1.24 5.78-1.855 8.974-1.855Zm0 22.042c2.281 0 4.226-.684 5.841-2.05 1.614-1.363 2.422-3.348 2.422-5.951 0-2.604-.808-4.632-2.422-6-1.615-1.364-3.564-2.048-5.84-2.048-1.456 0-2.865.3-4.226.904a7.653 7.653 0 0 0-3.276 2.664c-.855 1.206-1.284 2.699-1.284 4.476 0 1.778.43 3.22 1.284 4.429a8.013 8.013 0 0 0 3.276 2.712c1.361.572 2.77.857 4.225.857v.007ZM128.542 61.345c2.469-2.699 6.346-4.3 11.636-4.808v7.425h-5.938c-2.186 0-3.672.762-4.466 2.286-.76 1.523-1.141 3.585-1.141 6.189v10.52h-9.262V57.01h8.265l.902 4.33.004.004ZM157.217 57.009h4.938v6.663h-4.938v19.279h-9.262V63.672h-5.178V57.01h5.178v-5.617l9.262-4.43V57.01ZM181.012 67.725c.885 0 1.568-.017 2.044-.048l2.516-.047c3.611 0 6.54.49 8.786 1.476 2.25.952 3.371 2.871 3.371 5.76 0 3.744-1.645 6.22-4.938 7.425-3.294 1.175-7.124 1.76-11.495 1.76-4.37 0-8.184-.65-11.731-1.95-3.546-1.334-5.32-3.874-5.32-7.618l9.357.047c0 1.588.76 2.682 2.28 3.284 1.52.573 3.324.857 5.414.857 2.564 0 4.432-.285 5.604-.857 1.172-.572 1.756-1.459 1.756-2.664 0-1.206-.682-1.92-2.043-2.238-1.331-.35-2.564-.525-3.705-.525h-2.092c-2.945 0-5.573-.142-7.883-.43-2.31-.318-4.337-1.046-6.08-2.19-1.743-1.175-2.611-2.936-2.611-5.286 0-3.521 1.709-5.824 5.131-6.904 3.418-1.08 7.36-1.618 11.825-1.618 4.466 0 8.06.65 11.447 1.954 3.388 1.3 5.081 3.822 5.081 7.57l-9.215-.047c0-1.649-.871-2.746-2.611-3.285-1.74-.538-3.31-.809-4.702-.809-5.066 0-7.6 1.016-7.6 3.048 0 2.156 2.47 3.267 7.408 3.331l.006.004ZM340.834 6.79c.29-.707 1.294-.707 1.587 0l2.993 7.212a.863.863 0 0 0 .723.528l7.765.623c.764.061 1.075 1.016.495 1.514l-5.918 5.082a.866.866 0 0 0-.279.857l1.809 7.598a.86.86 0 0 1-1.288.934l-6.646-4.07a.85.85 0 0 0-.894 0l-6.653 4.07c-.651.4-1.463-.19-1.285-.934l1.809-7.598a.868.868 0 0 0-.278-.857l-5.916-5.082c-.583-.498-.275-1.453.489-1.514l7.766-.623a.862.862 0 0 0 .725-.528l2.996-7.211Z"/></g></g><defs><clipPath id="a"><path fill="#fff" d="M0 0h355.277v92H0z"/></clipPath></defs></svg>