<svg xmlns="http://www.w3.org/2000/svg" width="33" height="32" fill="none"><path fill="#fff" d="M15.66 1.413c.355-.86 1.568-.86 1.923 0l3.623 8.753c.148.361.49.609.877.64l9.404.759c.923.074 1.296 1.232.592 1.837l-7.163 6.168a1.048 1.048 0 0 0-.335 1.038l2.188 9.22c.215.907-.765 1.622-1.554 1.137l-8.05-4.94a1.033 1.033 0 0 0-1.086 0l-8.051 4.94c-.79.485-1.769-.23-1.554-1.137l2.188-9.22a1.05 1.05 0 0 0-.338-1.038L1.16 13.402c-.701-.605-.328-1.763.595-1.837l9.404-.758c.388-.032.726-.28.878-.641l3.622-8.753Z"/></svg>